{
	"asset":{
		"generator":"Khronos glTF Blender I/O v4.3.47",
		"version":"2.0"
	},
	"extensionsUsed":[
		"KHR_lights_punctual",
		"KHR_materials_specular"
	],
	"extensionsRequired":[
		"KHR_lights_punctual"
	],
	"extensions":{
		"KHR_lights_punctual":{
			"lights":[
				{
					"color":[
						1,
						1,
						1
					],
					"intensity":54351.41306588226,
					"type":"point",
					"name":"Light"
				},
				{
					"color":[
						1,
						1,
						1
					],
					"intensity":27175.70653294113,
					"type":"point",
					"name":"Light.001"
				}
			]
		}
	},
	"scene":0,
	"scenes":[
		{
			"name":"Scene",
			"nodes":[
				0,
				1,
				2,
				3,
				4,
				5,
				6,
				7,
				8,
				9,
				10
			]
		}
	],
	"nodes":[
		{
			"extensions":{
				"KHR_lights_punctual":{
					"light":0
				}
			},
			"name":"Light",
			"rotation":[
				-0.4311164319515228,
				0.5537319779396057,
				0.5740067362785339,
				0.42194297909736633
			],
			"translation":[
				2.6606929302215576,
				5.398143291473389,
				0.01030771154910326
			]
		},
		{
			"camera":0,
			"name":"Camera",
			"translation":[
				0.9796873331069946,
				2.668287754058838,
				14.988192558288574
			]
		},
		{
			"mesh":0,
			"name":"Circle",
			"scale":[
				0.6359395384788513,
				0.6359395384788513,
				0.6359395384788513
			]
		},
		{
			"mesh":1,
			"name":"Circle.001",
			"scale":[
				0.7197046875953674,
				0.7197046875953674,
				0.7197046875953674
			],
			"translation":[
				0,
				2.980482339859009,
				0
			]
		},
		{
			"mesh":2,
			"name":"Cylinder",
			"scale":[
				7.419561386108398,
				1,
				7.419561386108398
			],
			"translation":[
				-0.3377761244773865,
				1.8875209093093872,
				0
			]
		},
		{
			"mesh":3,
			"name":"Circle.002",
			"scale":[
				0.6359395384788513,
				0.6359395384788513,
				0.6359395384788513
			]
		},
		{
			"mesh":4,
			"name":"Circle.003",
			"scale":[
				0.6359395384788513,
				0.6359395384788513,
				0.6359395384788513
			],
			"translation":[
				2.6547632217407227,
				0,
				0
			]
		},
		{
			"mesh":5,
			"name":"Circle.004",
			"scale":[
				0.7197046875953674,
				0.7197046875953674,
				0.7197046875953674
			],
			"translation":[
				2.6547632217407227,
				5.455583572387695,
				0
			]
		},
		{
			"mesh":6,
			"name":"Cylinder.001",
			"scale":[
				7.419561386108398,
				1,
				7.419561386108398
			],
			"translation":[
				2.3169870376586914,
				4.171812534332275,
				0
			]
		},
		{
			"mesh":7,
			"name":"Circle.005",
			"scale":[
				0.6359395384788513,
				0.6359395384788513,
				0.6359395384788513
			],
			"translation":[
				2.6547632217407227,
				0,
				0
			]
		},
		{
			"extensions":{
				"KHR_lights_punctual":{
					"light":1
				}
			},
			"name":"Light.001",
			"rotation":[
				-0.4311164319515228,
				0.5537319779396057,
				0.5740067362785339,
				0.42194297909736633
			],
			"translation":[
				-0.00029588863253593445,
				2.9028820991516113,
				0.016989924013614655
			]
		}
	],
	"cameras":[
		{
			"name":"Camera",
			"perspective":{
				"aspectRatio":1.7777777777777777,
				"yfov":0.39959652046304894,
				"zfar":100,
				"znear":0.10000000149011612
			},
			"type":"perspective"
		}
	],
	"materials":[
		{
			"doubleSided":true,
			"extensions":{
				"KHR_materials_specular":{
					"specularFactor":0
				}
			},
			"name":"Material.005",
			"pbrMetallicRoughness":{
				"baseColorFactor":[
					0.14426295459270477,
					0.1159249097108841,
					0.08327972888946533,
					1
				],
				"metallicFactor":0
			}
		},
		{
			"doubleSided":true,
			"extensions":{
				"KHR_materials_specular":{
					"specularFactor":0
				}
			},
			"name":"Material.002",
			"pbrMetallicRoughness":{
				"baseColorFactor":[
					0.3324495851993561,
					0.2663559317588806,
					0.05780550092458725,
					1
				],
				"metallicFactor":0
			}
		},
		{
			"doubleSided":true,
			"name":"Material.001",
			"pbrMetallicRoughness":{
				"baseColorFactor":[
					0.009620287455618382,
					0.009620287455618382,
					0.009620287455618382,
					1
				],
				"metallicFactor":0
			}
		},
		{
			"doubleSided":true,
			"name":"Material.003",
			"pbrMetallicRoughness":{
				"baseColorFactor":[
					0.14416056871414185,
					0.14416056871414185,
					0.14416056871414185,
					1
				],
				"metallicFactor":0.2848101258277893,
				"roughnessFactor":0.3987341821193695
			}
		}
	],
	"meshes":[
		{
			"name":"Circle",
			"primitives":[
				{
					"attributes":{
						"POSITION":0,
						"NORMAL":1,
						"TEXCOORD_0":2,
						"TANGENT":3
					},
					"indices":4,
					"material":0
				}
			]
		},
		{
			"name":"Circle.001",
			"primitives":[
				{
					"attributes":{
						"POSITION":5,
						"NORMAL":6,
						"TEXCOORD_0":7
					},
					"indices":8,
					"material":1
				}
			]
		},
		{
			"name":"Cylinder",
			"primitives":[
				{
					"attributes":{
						"POSITION":9,
						"NORMAL":10,
						"TEXCOORD_0":11
					},
					"indices":12,
					"material":2
				}
			]
		},
		{
			"name":"Circle.002",
			"primitives":[
				{
					"attributes":{
						"POSITION":13,
						"NORMAL":14,
						"TEXCOORD_0":15,
						"TANGENT":16
					},
					"indices":17,
					"material":3
				}
			]
		},
		{
			"name":"Circle.003",
			"primitives":[
				{
					"attributes":{
						"POSITION":18,
						"NORMAL":19,
						"TEXCOORD_0":20,
						"TANGENT":21
					},
					"indices":4,
					"material":0
				}
			]
		},
		{
			"name":"Circle.004",
			"primitives":[
				{
					"attributes":{
						"POSITION":22,
						"NORMAL":23,
						"TEXCOORD_0":24
					},
					"indices":8,
					"material":1
				}
			]
		},
		{
			"name":"Cylinder.001",
			"primitives":[
				{
					"attributes":{
						"POSITION":25,
						"NORMAL":26,
						"TEXCOORD_0":27
					},
					"indices":12,
					"material":2
				}
			]
		},
		{
			"name":"Circle.005",
			"primitives":[
				{
					"attributes":{
						"POSITION":28,
						"NORMAL":29,
						"TEXCOORD_0":30
					},
					"indices":31,
					"material":3
				}
			]
		}
	],
	"accessors":[
		{
			"bufferView":0,
			"componentType":5126,
			"count":768,
			"max":[
				1,
				1.0567322969436646,
				1
			],
			"min":[
				-1,
				0,
				-1
			],
			"type":"VEC3"
		},
		{
			"bufferView":1,
			"componentType":5126,
			"count":768,
			"type":"VEC3"
		},
		{
			"bufferView":2,
			"componentType":5126,
			"count":768,
			"type":"VEC2"
		},
		{
			"bufferView":3,
			"componentType":5126,
			"count":768,
			"type":"VEC4"
		},
		{
			"bufferView":4,
			"componentType":5123,
			"count":4416,
			"type":"SCALAR"
		},
		{
			"bufferView":5,
			"componentType":5126,
			"count":288,
			"max":[
				1.1129361391067505,
				0.1415567398071289,
				1.1129361391067505
			],
			"min":[
				-1.1129361391067505,
				-1.6050543785095215,
				-1.1129361391067505
			],
			"type":"VEC3"
		},
		{
			"bufferView":6,
			"componentType":5126,
			"count":288,
			"type":"VEC3"
		},
		{
			"bufferView":7,
			"componentType":5126,
			"count":288,
			"type":"VEC2"
		},
		{
			"bufferView":8,
			"componentType":5123,
			"count":1626,
			"type":"SCALAR"
		},
		{
			"bufferView":9,
			"componentType":5126,
			"count":2176,
			"max":[
				0.002034305827692151,
				1.0516810417175293,
				0.002007405273616314
			],
			"min":[
				-0.001980465603992343,
				-0.6058411002159119,
				-0.0020073652267456055
			],
			"type":"VEC3"
		},
		{
			"bufferView":10,
			"componentType":5126,
			"count":2176,
			"type":"VEC3"
		},
		{
			"bufferView":11,
			"componentType":5126,
			"count":2176,
			"type":"VEC2"
		},
		{
			"bufferView":12,
			"componentType":5123,
			"count":3252,
			"type":"SCALAR"
		},
		{
			"bufferView":13,
			"componentType":5126,
			"count":64,
			"max":[
				0.12581977248191833,
				4.583798408508301,
				0.08927464485168457
			],
			"min":[
				-0.12415722012519836,
				1.0567322969436646,
				-0.16070234775543213
			],
			"type":"VEC3"
		},
		{
			"bufferView":14,
			"componentType":5126,
			"count":64,
			"type":"VEC3"
		},
		{
			"bufferView":15,
			"componentType":5126,
			"count":64,
			"type":"VEC2"
		},
		{
			"bufferView":16,
			"componentType":5126,
			"count":64,
			"type":"VEC4"
		},
		{
			"bufferView":17,
			"componentType":5123,
			"count":192,
			"type":"SCALAR"
		},
		{
			"bufferView":18,
			"componentType":5126,
			"count":768,
			"max":[
				1,
				1.0567322969436646,
				1
			],
			"min":[
				-1,
				0,
				-1
			],
			"type":"VEC3"
		},
		{
			"bufferView":19,
			"componentType":5126,
			"count":768,
			"type":"VEC3"
		},
		{
			"bufferView":20,
			"componentType":5126,
			"count":768,
			"type":"VEC2"
		},
		{
			"bufferView":21,
			"componentType":5126,
			"count":768,
			"type":"VEC4"
		},
		{
			"bufferView":22,
			"componentType":5126,
			"count":288,
			"max":[
				1.1129361391067505,
				0.1415567398071289,
				1.1129361391067505
			],
			"min":[
				-1.1129361391067505,
				-1.6050543785095215,
				-1.1129361391067505
			],
			"type":"VEC3"
		},
		{
			"bufferView":23,
			"componentType":5126,
			"count":288,
			"type":"VEC3"
		},
		{
			"bufferView":24,
			"componentType":5126,
			"count":288,
			"type":"VEC2"
		},
		{
			"bufferView":25,
			"componentType":5126,
			"count":2176,
			"max":[
				0.002034305827692151,
				1.0516810417175293,
				0.002007405273616314
			],
			"min":[
				-0.001980465603992343,
				-0.6058411002159119,
				-0.0020073652267456055
			],
			"type":"VEC3"
		},
		{
			"bufferView":26,
			"componentType":5126,
			"count":2176,
			"type":"VEC3"
		},
		{
			"bufferView":27,
			"componentType":5126,
			"count":2176,
			"type":"VEC2"
		},
		{
			"bufferView":28,
			"componentType":5126,
			"count":256,
			"max":[
				0.12581977248191833,
				8.42138671875,
				0.08927464485168457
			],
			"min":[
				-0.12415722012519836,
				1.0567322969436646,
				-0.16070234775543213
			],
			"type":"VEC3"
		},
		{
			"bufferView":29,
			"componentType":5126,
			"count":256,
			"type":"VEC3"
		},
		{
			"bufferView":30,
			"componentType":5126,
			"count":256,
			"type":"VEC2"
		},
		{
			"bufferView":31,
			"componentType":5123,
			"count":1434,
			"type":"SCALAR"
		}
	],
	"bufferViews":[
		{
			"buffer":0,
			"byteLength":9216,
			"byteOffset":0,
			"target":34962
		},
		{
			"buffer":0,
			"byteLength":9216,
			"byteOffset":9216,
			"target":34962
		},
		{
			"buffer":0,
			"byteLength":6144,
			"byteOffset":18432,
			"target":34962
		},
		{
			"buffer":0,
			"byteLength":12288,
			"byteOffset":24576,
			"target":34962
		},
		{
			"buffer":0,
			"byteLength":8832,
			"byteOffset":36864,
			"target":34963
		},
		{
			"buffer":0,
			"byteLength":3456,
			"byteOffset":45696,
			"target":34962
		},
		{
			"buffer":0,
			"byteLength":3456,
			"byteOffset":49152,
			"target":34962
		},
		{
			"buffer":0,
			"byteLength":2304,
			"byteOffset":52608,
			"target":34962
		},
		{
			"buffer":0,
			"byteLength":3252,
			"byteOffset":54912,
			"target":34963
		},
		{
			"buffer":0,
			"byteLength":26112,
			"byteOffset":58164,
			"target":34962
		},
		{
			"buffer":0,
			"byteLength":26112,
			"byteOffset":84276,
			"target":34962
		},
		{
			"buffer":0,
			"byteLength":17408,
			"byteOffset":110388,
			"target":34962
		},
		{
			"buffer":0,
			"byteLength":6504,
			"byteOffset":127796,
			"target":34963
		},
		{
			"buffer":0,
			"byteLength":768,
			"byteOffset":134300,
			"target":34962
		},
		{
			"buffer":0,
			"byteLength":768,
			"byteOffset":135068,
			"target":34962
		},
		{
			"buffer":0,
			"byteLength":512,
			"byteOffset":135836,
			"target":34962
		},
		{
			"buffer":0,
			"byteLength":1024,
			"byteOffset":136348,
			"target":34962
		},
		{
			"buffer":0,
			"byteLength":384,
			"byteOffset":137372,
			"target":34963
		},
		{
			"buffer":0,
			"byteLength":9216,
			"byteOffset":137756,
			"target":34962
		},
		{
			"buffer":0,
			"byteLength":9216,
			"byteOffset":146972,
			"target":34962
		},
		{
			"buffer":0,
			"byteLength":6144,
			"byteOffset":156188,
			"target":34962
		},
		{
			"buffer":0,
			"byteLength":12288,
			"byteOffset":162332,
			"target":34962
		},
		{
			"buffer":0,
			"byteLength":3456,
			"byteOffset":174620,
			"target":34962
		},
		{
			"buffer":0,
			"byteLength":3456,
			"byteOffset":178076,
			"target":34962
		},
		{
			"buffer":0,
			"byteLength":2304,
			"byteOffset":181532,
			"target":34962
		},
		{
			"buffer":0,
			"byteLength":26112,
			"byteOffset":183836,
			"target":34962
		},
		{
			"buffer":0,
			"byteLength":26112,
			"byteOffset":209948,
			"target":34962
		},
		{
			"buffer":0,
			"byteLength":17408,
			"byteOffset":236060,
			"target":34962
		},
		{
			"buffer":0,
			"byteLength":3072,
			"byteOffset":253468,
			"target":34962
		},
		{
			"buffer":0,
			"byteLength":3072,
			"byteOffset":256540,
			"target":34962
		},
		{
			"buffer":0,
			"byteLength":2048,
			"byteOffset":259612,
			"target":34962
		},
		{
			"buffer":0,
			"byteLength":2868,
			"byteOffset":261660,
			"target":34963
		}
	],
	"buffers":[
		{
			"byteLength":264528,
			"uri":"bigLamp-3e58881543ddaa1a8c847bd9cac1862e.bin"
		}
	]
}
