{
	"asset":{
		"generator":"Khronos glTF Blender I/O v4.3.47",
		"version":"2.0"
	},
	"extensionsUsed":[
		"KHR_lights_punctual",
		"KHR_materials_specular",
		"KHR_materials_ior"
	],
	"extensionsRequired":[
		"KHR_lights_punctual"
	],
	"extensions":{
		"KHR_lights_punctual":{
			"lights":[
				{
					"color":[
						1,
						0.968661904335022,
						0.6424053907394409
					],
					"intensity":2717.5706532941126,
					"type":"point",
					"name":"Light"
				}
			]
		}
	},
	"scene":0,
	"scenes":[
		{
			"name":"Scene",
			"nodes":[
				0,
				1,
				2,
				3
			]
		}
	],
	"nodes":[
		{
			"extensions":{
				"KHR_lights_punctual":{
					"light":0
				}
			},
			"name":"Light",
			"rotation":[
				-0.28416627645492554,
				0.7269423007965088,
				0.34203392267227173,
				0.5232754945755005
			],
			"translation":[
				-0.015307426452636719,
				2.2781450748443604,
				0.014315605163574219
			]
		},
		{
			"camera":0,
			"name":"Camera",
			"rotation":[
				0.07328487187623978,
				-0.37343406677246094,
				0.029608871787786484,
				0.9242833852767944
			],
			"translation":[
				-6.036297798156738,
				0.8194217681884766,
				6.294256210327148
			]
		},
		{
			"mesh":0,
			"name":"Circle",
			"scale":[
				0.5737223029136658,
				0.5737223029136658,
				0.5737223029136658
			],
			"translation":[
				0,
				2.330728769302368,
				0
			]
		},
		{
			"mesh":1,
			"name":"Plane",
			"scale":[
				5.410170555114746,
				5.410170555114746,
				5.410170555114746
			],
			"translation":[
				0,
				2.4168970584869385,
				0
			]
		}
	],
	"cameras":[
		{
			"name":"Camera",
			"perspective":{
				"aspectRatio":1.7777777777777777,
				"yfov":0.39959652046304894,
				"zfar":100,
				"znear":0.10000000149011612
			},
			"type":"perspective"
		}
	],
	"materials":[
		{
			"doubleSided":true,
			"extensions":{
				"KHR_materials_specular":{
					"specularFactor":0
				},
				"KHR_materials_ior":{
					"ior":1.4500000476837158
				}
			},
			"name":"Material",
			"pbrMetallicRoughness":{
				"baseColorFactor":[
					0.7993099689483643,
					0.7565643191337585,
					0.34217530488967896,
					1
				],
				"metallicFactor":0
			}
		},
		{
			"doubleSided":true,
			"extensions":{
				"KHR_materials_specular":{
					"specularFactor":0
				}
			},
			"name":"Material.001",
			"pbrMetallicRoughness":{
				"baseColorFactor":[
					0.2677919864654541,
					0.2677919864654541,
					0.2677919864654541,
					1
				],
				"metallicFactor":0
			}
		}
	],
	"meshes":[
		{
			"name":"Circle",
			"primitives":[
				{
					"attributes":{
						"POSITION":0,
						"NORMAL":1,
						"TEXCOORD_0":2
					},
					"indices":3,
					"material":0
				}
			]
		},
		{
			"name":"Plane",
			"primitives":[
				{
					"attributes":{
						"POSITION":4,
						"NORMAL":5,
						"TEXCOORD_0":6,
						"TANGENT":7
					},
					"indices":8,
					"material":1
				}
			]
		}
	],
	"accessors":[
		{
			"bufferView":0,
			"componentType":5126,
			"count":288,
			"max":[
				1.2859842777252197,
				0.14515383541584015,
				1.2859842777252197
			],
			"min":[
				-1.2859842777252197,
				-0.17143937945365906,
				-1.2859842777252197
			],
			"type":"VEC3"
		},
		{
			"bufferView":1,
			"componentType":5126,
			"count":288,
			"type":"VEC3"
		},
		{
			"bufferView":2,
			"componentType":5126,
			"count":288,
			"type":"VEC2"
		},
		{
			"bufferView":3,
			"componentType":5123,
			"count":1716,
			"type":"SCALAR"
		},
		{
			"bufferView":4,
			"componentType":5126,
			"count":24,
			"max":[
				1,
				0.026256563141942024,
				1
			],
			"min":[
				-1,
				0,
				-1
			],
			"type":"VEC3"
		},
		{
			"bufferView":5,
			"componentType":5126,
			"count":24,
			"type":"VEC3"
		},
		{
			"bufferView":6,
			"componentType":5126,
			"count":24,
			"type":"VEC2"
		},
		{
			"bufferView":7,
			"componentType":5126,
			"count":24,
			"type":"VEC4"
		},
		{
			"bufferView":8,
			"componentType":5123,
			"count":36,
			"type":"SCALAR"
		}
	],
	"bufferViews":[
		{
			"buffer":0,
			"byteLength":3456,
			"byteOffset":0,
			"target":34962
		},
		{
			"buffer":0,
			"byteLength":3456,
			"byteOffset":3456,
			"target":34962
		},
		{
			"buffer":0,
			"byteLength":2304,
			"byteOffset":6912,
			"target":34962
		},
		{
			"buffer":0,
			"byteLength":3432,
			"byteOffset":9216,
			"target":34963
		},
		{
			"buffer":0,
			"byteLength":288,
			"byteOffset":12648,
			"target":34962
		},
		{
			"buffer":0,
			"byteLength":288,
			"byteOffset":12936,
			"target":34962
		},
		{
			"buffer":0,
			"byteLength":192,
			"byteOffset":13224,
			"target":34962
		},
		{
			"buffer":0,
			"byteLength":384,
			"byteOffset":13416,
			"target":34962
		},
		{
			"buffer":0,
			"byteLength":72,
			"byteOffset":13800,
			"target":34963
		}
	],
	"buffers":[
		{
			"byteLength":13872,
			"uri":"ceilingLight-d51e2a692af7f931cfb7bca454f3a5a9.bin"
		}
	]
}
