{
	"asset":{
		"generator":"Khronos glTF Blender I/O v4.3.47",
		"version":"2.0"
	},
	"extensionsUsed":[
		"KHR_lights_punctual",
		"KHR_materials_specular"
	],
	"extensionsRequired":[
		"KHR_lights_punctual"
	],
	"extensions":{
		"KHR_lights_punctual":{
			"lights":[
				{
					"color":[
						1,
						1,
						1
					],
					"intensity":27175.70653294113,
					"type":"point",
					"name":"Light"
				}
			]
		}
	},
	"scene":0,
	"scenes":[
		{
			"name":"Scene",
			"nodes":[
				0,
				1,
				2,
				3,
				4,
				5
			]
		}
	],
	"nodes":[
		{
			"extensions":{
				"KHR_lights_punctual":{
					"light":0
				}
			},
			"name":"Light",
			"rotation":[
				-0.28416627645492554,
				0.7269423007965088,
				0.34203392267227173,
				0.5232754945755005
			],
			"translation":[
				-0.6531655788421631,
				2.3194456100463867,
				4.281507968902588
			]
		},
		{
			"camera":0,
			"name":"Camera",
			"translation":[
				0.042882852256298065,
				0.0030968268401920795,
				5.949728965759277
			]
		},
		{
			"mesh":0,
			"name":"Cylinder",
			"rotation":[
				0.7071068286895752,
				0,
				0,
				0.7071068286895752
			]
		},
		{
			"mesh":1,
			"name":"Plane",
			"rotation":[
				0.7071068286895752,
				0,
				0,
				0.7071068286895752
			],
			"scale":[
				0.01866832748055458,
				0.4538176357746124,
				0.3466079831123352
			],
			"translation":[
				0,
				0.34611979126930237,
				-0.005864030681550503
			]
		},
		{
			"mesh":2,
			"name":"Plane.001",
			"rotation":[
				0.4985436499118805,
				-0.5014521479606628,
				-0.5014520883560181,
				0.4985436499118805
			],
			"scale":[
				0.01286199502646923,
				0.3126686215400696,
				0.2388039380311966
			],
			"translation":[
				0.2390468418598175,
				0.001712024211883545,
				-0.0032676411792635918
			]
		},
		{
			"mesh":3,
			"name":"Sphere",
			"scale":[
				0.036617912352085114,
				0.036617912352085114,
				0.036617912352085114
			],
			"translation":[
				0,
				0,
				-0.012581448070704937
			]
		}
	],
	"cameras":[
		{
			"name":"Camera",
			"perspective":{
				"aspectRatio":1.7777777777777777,
				"yfov":0.39959652046304894,
				"zfar":100,
				"znear":0.10000000149011612
			},
			"type":"perspective"
		}
	],
	"materials":[
		{
			"doubleSided":true,
			"name":"Material.001",
			"pbrMetallicRoughness":{
				"baseColorFactor":[
					0.09949877858161926,
					0.09949877858161926,
					0.09949877858161926,
					1
				],
				"metallicFactor":0.75,
				"roughnessFactor":0.057084593921899796
			}
		},
		{
			"doubleSided":true,
			"name":"Material.002",
			"pbrMetallicRoughness":{
				"metallicFactor":0,
				"roughnessFactor":0.5
			}
		},
		{
			"doubleSided":true,
			"name":"Material.004"
		},
		{
			"doubleSided":true,
			"extensions":{
				"KHR_materials_specular":{
					"specularFactor":0
				}
			},
			"name":"Material.003",
			"pbrMetallicRoughness":{
				"baseColorFactor":[
					0.0350014790892601,
					0.0350014790892601,
					0.0350014790892601,
					1
				],
				"metallicFactor":0
			}
		}
	],
	"meshes":[
		{
			"name":"Cylinder.001",
			"primitives":[
				{
					"attributes":{
						"POSITION":0,
						"NORMAL":1,
						"TEXCOORD_0":2
					},
					"indices":3,
					"material":0
				},
				{
					"attributes":{
						"POSITION":4,
						"NORMAL":5,
						"TEXCOORD_0":6
					},
					"indices":7,
					"material":1
				},
				{
					"attributes":{
						"POSITION":8,
						"NORMAL":9,
						"TEXCOORD_0":10
					},
					"indices":11,
					"material":2
				}
			]
		},
		{
			"name":"Plane",
			"primitives":[
				{
					"attributes":{
						"POSITION":12,
						"NORMAL":13,
						"TEXCOORD_0":14,
						"TANGENT":15
					},
					"indices":16,
					"material":3
				}
			]
		},
		{
			"name":"Plane.001",
			"primitives":[
				{
					"attributes":{
						"POSITION":17,
						"NORMAL":18,
						"TEXCOORD_0":19,
						"TANGENT":20
					},
					"indices":16,
					"material":3
				}
			]
		},
		{
			"name":"Sphere",
			"primitives":[
				{
					"attributes":{
						"POSITION":21,
						"NORMAL":22,
						"TEXCOORD_0":23,
						"TANGENT":24
					},
					"indices":25,
					"material":3
				}
			]
		}
	],
	"accessors":[
		{
			"bufferView":0,
			"componentType":5126,
			"count":2848,
			"max":[
				1,
				0.06144766882061958,
				1
			],
			"min":[
				-1,
				-0.06144766882061958,
				-1
			],
			"type":"VEC3"
		},
		{
			"bufferView":1,
			"componentType":5126,
			"count":2848,
			"type":"VEC3"
		},
		{
			"bufferView":2,
			"componentType":5126,
			"count":2848,
			"type":"VEC2"
		},
		{
			"bufferView":3,
			"componentType":5123,
			"count":4506,
			"type":"SCALAR"
		},
		{
			"bufferView":4,
			"componentType":5126,
			"count":32,
			"max":[
				0.9121602177619934,
				-0.007548912428319454,
				0.9121602177619934
			],
			"min":[
				-0.9121602177619934,
				-0.007548912428319454,
				-0.9121602177619934
			],
			"type":"VEC3"
		},
		{
			"bufferView":5,
			"componentType":5126,
			"count":32,
			"type":"VEC3"
		},
		{
			"bufferView":6,
			"componentType":5126,
			"count":32,
			"type":"VEC2"
		},
		{
			"bufferView":7,
			"componentType":5123,
			"count":90,
			"type":"SCALAR"
		},
		{
			"bufferView":8,
			"componentType":5126,
			"count":32,
			"max":[
				0.9397668838500977,
				0.04334954917430878,
				0.9397668838500977
			],
			"min":[
				-0.9397668838500977,
				0.04334954917430878,
				-0.9397668838500977
			],
			"type":"VEC3"
		},
		{
			"bufferView":9,
			"componentType":5126,
			"count":32,
			"type":"VEC3"
		},
		{
			"bufferView":10,
			"componentType":5126,
			"count":32,
			"type":"VEC2"
		},
		{
			"bufferView":11,
			"componentType":5123,
			"count":90,
			"type":"SCALAR"
		},
		{
			"bufferView":12,
			"componentType":5126,
			"count":6,
			"max":[
				1,
				0,
				1
			],
			"min":[
				-1,
				0,
				-1
			],
			"type":"VEC3"
		},
		{
			"bufferView":13,
			"componentType":5126,
			"count":6,
			"type":"VEC3"
		},
		{
			"bufferView":14,
			"componentType":5126,
			"count":6,
			"type":"VEC2"
		},
		{
			"bufferView":15,
			"componentType":5126,
			"count":6,
			"type":"VEC4"
		},
		{
			"bufferView":16,
			"componentType":5123,
			"count":12,
			"type":"SCALAR"
		},
		{
			"bufferView":17,
			"componentType":5126,
			"count":6,
			"max":[
				1,
				0,
				1
			],
			"min":[
				-1,
				0,
				-1
			],
			"type":"VEC3"
		},
		{
			"bufferView":18,
			"componentType":5126,
			"count":6,
			"type":"VEC3"
		},
		{
			"bufferView":19,
			"componentType":5126,
			"count":6,
			"type":"VEC2"
		},
		{
			"bufferView":20,
			"componentType":5126,
			"count":6,
			"type":"VEC4"
		},
		{
			"bufferView":21,
			"componentType":5126,
			"count":992,
			"max":[
				0.9999997019767761,
				1,
				0.9999993443489075
			],
			"min":[
				-0.9999990463256836,
				-1,
				-4.470348358154297e-07
			],
			"type":"VEC3"
		},
		{
			"bufferView":22,
			"componentType":5126,
			"count":992,
			"type":"VEC3"
		},
		{
			"bufferView":23,
			"componentType":5126,
			"count":992,
			"type":"VEC2"
		},
		{
			"bufferView":24,
			"componentType":5126,
			"count":992,
			"type":"VEC4"
		},
		{
			"bufferView":25,
			"componentType":5123,
			"count":1440,
			"type":"SCALAR"
		}
	],
	"bufferViews":[
		{
			"buffer":0,
			"byteLength":34176,
			"byteOffset":0,
			"target":34962
		},
		{
			"buffer":0,
			"byteLength":34176,
			"byteOffset":34176,
			"target":34962
		},
		{
			"buffer":0,
			"byteLength":22784,
			"byteOffset":68352,
			"target":34962
		},
		{
			"buffer":0,
			"byteLength":9012,
			"byteOffset":91136,
			"target":34963
		},
		{
			"buffer":0,
			"byteLength":384,
			"byteOffset":100148,
			"target":34962
		},
		{
			"buffer":0,
			"byteLength":384,
			"byteOffset":100532,
			"target":34962
		},
		{
			"buffer":0,
			"byteLength":256,
			"byteOffset":100916,
			"target":34962
		},
		{
			"buffer":0,
			"byteLength":180,
			"byteOffset":101172,
			"target":34963
		},
		{
			"buffer":0,
			"byteLength":384,
			"byteOffset":101352,
			"target":34962
		},
		{
			"buffer":0,
			"byteLength":384,
			"byteOffset":101736,
			"target":34962
		},
		{
			"buffer":0,
			"byteLength":256,
			"byteOffset":102120,
			"target":34962
		},
		{
			"buffer":0,
			"byteLength":180,
			"byteOffset":102376,
			"target":34963
		},
		{
			"buffer":0,
			"byteLength":72,
			"byteOffset":102556,
			"target":34962
		},
		{
			"buffer":0,
			"byteLength":72,
			"byteOffset":102628,
			"target":34962
		},
		{
			"buffer":0,
			"byteLength":48,
			"byteOffset":102700,
			"target":34962
		},
		{
			"buffer":0,
			"byteLength":96,
			"byteOffset":102748,
			"target":34962
		},
		{
			"buffer":0,
			"byteLength":24,
			"byteOffset":102844,
			"target":34963
		},
		{
			"buffer":0,
			"byteLength":72,
			"byteOffset":102868,
			"target":34962
		},
		{
			"buffer":0,
			"byteLength":72,
			"byteOffset":102940,
			"target":34962
		},
		{
			"buffer":0,
			"byteLength":48,
			"byteOffset":103012,
			"target":34962
		},
		{
			"buffer":0,
			"byteLength":96,
			"byteOffset":103060,
			"target":34962
		},
		{
			"buffer":0,
			"byteLength":11904,
			"byteOffset":103156,
			"target":34962
		},
		{
			"buffer":0,
			"byteLength":11904,
			"byteOffset":115060,
			"target":34962
		},
		{
			"buffer":0,
			"byteLength":7936,
			"byteOffset":126964,
			"target":34962
		},
		{
			"buffer":0,
			"byteLength":15872,
			"byteOffset":134900,
			"target":34962
		},
		{
			"buffer":0,
			"byteLength":2880,
			"byteOffset":150772,
			"target":34963
		}
	],
	"buffers":[
		{
			"byteLength":153652,
			"uri":"clock-2534aaf35880667f26fdeeadf1141c64.bin"
		}
	]
}
