{
	"asset":{
		"generator":"Khronos glTF Blender I/O v4.3.47",
		"version":"2.0"
	},
	"extensionsUsed":[
		"KHR_materials_specular",
		"KHR_materials_ior"
	],
	"scene":0,
	"scenes":[
		{
			"name":"Scene",
			"nodes":[
				0,
				1,
				2,
				3,
				4,
				5,
				6,
				7
			]
		}
	],
	"nodes":[
		{
			"mesh":0,
			"name":"Cube",
			"scale":[
				0.545241117477417,
				0.545241117477417,
				0.545241117477417
			],
			"translation":[
				0,
				0.8521702289581299,
				0
			]
		},
		{
			"camera":0,
			"name":"Camera",
			"rotation":[
				-0.00858306884765625,
				0.8497803807258606,
				0.5268852114677429,
				0.013843841850757599
			],
			"translation":[
				1.2063517570495605,
				5.881835460662842,
				-2.6265084743499756
			]
		},
		{
			"mesh":1,
			"name":"Cube.001",
			"scale":[
				0.545241117477417,
				0.545241117477417,
				0.545241117477417
			],
			"translation":[
				0,
				0.8521702289581299,
				0
			]
		},
		{
			"mesh":2,
			"name":"Cube.002",
			"scale":[
				0.545241117477417,
				0.545241117477417,
				0.545241117477417
			],
			"translation":[
				0.8407498002052307,
				0.8521702289581299,
				0
			]
		},
		{
			"mesh":3,
			"name":"Cube.003",
			"scale":[
				0.545241117477417,
				0.545241117477417,
				0.545241117477417
			],
			"translation":[
				1.6814994812011719,
				0.8521702289581299,
				0
			]
		},
		{
			"mesh":4,
			"name":"Cube.004",
			"rotation":[
				0.6427876353263855,
				0,
				0,
				0.766044557094574
			],
			"scale":[
				0.545241117477417,
				0.5400543212890625,
				0.34092774987220764
			],
			"translation":[
				0,
				1.1801061630249023,
				-0.09007018059492111
			]
		},
		{
			"mesh":5,
			"name":"Cube.005",
			"rotation":[
				0.6427876353263855,
				0,
				0,
				0.766044557094574
			],
			"scale":[
				0.545241117477417,
				0.5400543212890625,
				0.34092774987220764
			],
			"translation":[
				0.8448510766029358,
				1.1801061630249023,
				-0.09007018059492111
			]
		},
		{
			"mesh":6,
			"name":"Cube.006",
			"rotation":[
				0.6427876353263855,
				0,
				0,
				0.766044557094574
			],
			"scale":[
				0.545241117477417,
				0.5400543212890625,
				0.34092774987220764
			],
			"translation":[
				1.685600996017456,
				1.1801061630249023,
				-0.09007018059492111
			]
		}
	],
	"cameras":[
		{
			"name":"Camera",
			"perspective":{
				"aspectRatio":1.7777777777777777,
				"yfov":0.39959652046304894,
				"zfar":100,
				"znear":0.10000000149011612
			},
			"type":"perspective"
		}
	],
	"materials":[
		{
			"doubleSided":true,
			"extensions":{
				"KHR_materials_specular":{
					"specularFactor":0
				},
				"KHR_materials_ior":{
					"ior":1.4500000476837158
				}
			},
			"name":"Material",
			"pbrMetallicRoughness":{
				"baseColorFactor":[
					0.9046450257301331,
					0.23454786837100983,
					0.1384342610836029,
					1
				],
				"metallicFactor":0
			}
		},
		{
			"doubleSided":true,
			"extensions":{
				"KHR_materials_specular":{
					"specularFactor":0
				},
				"KHR_materials_ior":{
					"ior":1.4500000476837158
				}
			},
			"name":"Material.001",
			"pbrMetallicRoughness":{
				"baseColorFactor":[
					0.8962545990943909,
					0.23073691129684448,
					0.13563594222068787,
					1
				],
				"metallicFactor":0
			}
		}
	],
	"meshes":[
		{
			"name":"Cube",
			"primitives":[
				{
					"attributes":{
						"POSITION":0,
						"NORMAL":1,
						"TEXCOORD_0":2,
						"TANGENT":3
					},
					"indices":4,
					"material":0
				}
			]
		},
		{
			"name":"Cube.001",
			"primitives":[
				{
					"attributes":{
						"POSITION":5,
						"NORMAL":6,
						"TEXCOORD_0":7,
						"TANGENT":8
					},
					"indices":9,
					"material":1
				}
			]
		},
		{
			"name":"Cube.002",
			"primitives":[
				{
					"attributes":{
						"POSITION":10,
						"NORMAL":11,
						"TEXCOORD_0":12,
						"TANGENT":13
					},
					"indices":9,
					"material":1
				}
			]
		},
		{
			"name":"Cube.003",
			"primitives":[
				{
					"attributes":{
						"POSITION":14,
						"NORMAL":15,
						"TEXCOORD_0":16,
						"TANGENT":17
					},
					"indices":9,
					"material":1
				}
			]
		},
		{
			"name":"Cube.004",
			"primitives":[
				{
					"attributes":{
						"POSITION":18,
						"NORMAL":19,
						"TEXCOORD_0":20,
						"TANGENT":21
					},
					"indices":9,
					"material":1
				}
			]
		},
		{
			"name":"Cube.005",
			"primitives":[
				{
					"attributes":{
						"POSITION":22,
						"NORMAL":23,
						"TEXCOORD_0":24,
						"TANGENT":25
					},
					"indices":9,
					"material":1
				}
			]
		},
		{
			"name":"Cube.006",
			"primitives":[
				{
					"attributes":{
						"POSITION":26,
						"NORMAL":27,
						"TEXCOORD_0":28,
						"TANGENT":29
					},
					"indices":9,
					"material":1
				}
			]
		}
	],
	"accessors":[
		{
			"bufferView":0,
			"componentType":5126,
			"count":1281,
			"max":[
				4.863112926483154,
				0.32656165957450867,
				1.1165410280227661
			],
			"min":[
				-0.9733297228813171,
				-1.1730096340179443,
				-0.9921578168869019
			],
			"type":"VEC3"
		},
		{
			"bufferView":1,
			"componentType":5126,
			"count":1281,
			"type":"VEC3"
		},
		{
			"bufferView":2,
			"componentType":5126,
			"count":1281,
			"type":"VEC2"
		},
		{
			"bufferView":3,
			"componentType":5126,
			"count":1281,
			"type":"VEC4"
		},
		{
			"bufferView":4,
			"componentType":5123,
			"count":4416,
			"type":"SCALAR"
		},
		{
			"bufferView":5,
			"componentType":5126,
			"count":194,
			"max":[
				1.1761950254440308,
				-0.09435954689979553,
				1.0524404048919678
			],
			"min":[
				-0.3345032036304474,
				-0.40830254554748535,
				-0.4958239197731018
			],
			"type":"VEC3"
		},
		{
			"bufferView":6,
			"componentType":5126,
			"count":194,
			"type":"VEC3"
		},
		{
			"bufferView":7,
			"componentType":5126,
			"count":194,
			"type":"VEC2"
		},
		{
			"bufferView":8,
			"componentType":5126,
			"count":194,
			"type":"VEC4"
		},
		{
			"bufferView":9,
			"componentType":5123,
			"count":900,
			"type":"SCALAR"
		},
		{
			"bufferView":10,
			"componentType":5126,
			"count":194,
			"max":[
				1.1761950254440308,
				-0.09435954689979553,
				1.0524404048919678
			],
			"min":[
				-0.3345032036304474,
				-0.40830254554748535,
				-0.4958239197731018
			],
			"type":"VEC3"
		},
		{
			"bufferView":11,
			"componentType":5126,
			"count":194,
			"type":"VEC3"
		},
		{
			"bufferView":12,
			"componentType":5126,
			"count":194,
			"type":"VEC2"
		},
		{
			"bufferView":13,
			"componentType":5126,
			"count":194,
			"type":"VEC4"
		},
		{
			"bufferView":14,
			"componentType":5126,
			"count":194,
			"max":[
				1.1761950254440308,
				-0.09435954689979553,
				1.0524404048919678
			],
			"min":[
				-0.3345032036304474,
				-0.40830254554748535,
				-0.4958239197731018
			],
			"type":"VEC3"
		},
		{
			"bufferView":15,
			"componentType":5126,
			"count":194,
			"type":"VEC3"
		},
		{
			"bufferView":16,
			"componentType":5126,
			"count":194,
			"type":"VEC2"
		},
		{
			"bufferView":17,
			"componentType":5126,
			"count":194,
			"type":"VEC4"
		},
		{
			"bufferView":18,
			"componentType":5126,
			"count":194,
			"max":[
				1.1761950254440308,
				-0.09435954689979553,
				1.0524404048919678
			],
			"min":[
				-0.3345032036304474,
				-0.40830254554748535,
				-0.4958239197731018
			],
			"type":"VEC3"
		},
		{
			"bufferView":19,
			"componentType":5126,
			"count":194,
			"type":"VEC3"
		},
		{
			"bufferView":20,
			"componentType":5126,
			"count":194,
			"type":"VEC2"
		},
		{
			"bufferView":21,
			"componentType":5126,
			"count":194,
			"type":"VEC4"
		},
		{
			"bufferView":22,
			"componentType":5126,
			"count":194,
			"max":[
				1.1761950254440308,
				-0.09435954689979553,
				1.0524404048919678
			],
			"min":[
				-0.3345032036304474,
				-0.40830254554748535,
				-0.4958239197731018
			],
			"type":"VEC3"
		},
		{
			"bufferView":23,
			"componentType":5126,
			"count":194,
			"type":"VEC3"
		},
		{
			"bufferView":24,
			"componentType":5126,
			"count":194,
			"type":"VEC2"
		},
		{
			"bufferView":25,
			"componentType":5126,
			"count":194,
			"type":"VEC4"
		},
		{
			"bufferView":26,
			"componentType":5126,
			"count":194,
			"max":[
				1.1761950254440308,
				-0.09435954689979553,
				1.0524404048919678
			],
			"min":[
				-0.3345032036304474,
				-0.40830254554748535,
				-0.4958239197731018
			],
			"type":"VEC3"
		},
		{
			"bufferView":27,
			"componentType":5126,
			"count":194,
			"type":"VEC3"
		},
		{
			"bufferView":28,
			"componentType":5126,
			"count":194,
			"type":"VEC2"
		},
		{
			"bufferView":29,
			"componentType":5126,
			"count":194,
			"type":"VEC4"
		}
	],
	"bufferViews":[
		{
			"buffer":0,
			"byteLength":15372,
			"byteOffset":0,
			"target":34962
		},
		{
			"buffer":0,
			"byteLength":15372,
			"byteOffset":15372,
			"target":34962
		},
		{
			"buffer":0,
			"byteLength":10248,
			"byteOffset":30744,
			"target":34962
		},
		{
			"buffer":0,
			"byteLength":20496,
			"byteOffset":40992,
			"target":34962
		},
		{
			"buffer":0,
			"byteLength":8832,
			"byteOffset":61488,
			"target":34963
		},
		{
			"buffer":0,
			"byteLength":2328,
			"byteOffset":70320,
			"target":34962
		},
		{
			"buffer":0,
			"byteLength":2328,
			"byteOffset":72648,
			"target":34962
		},
		{
			"buffer":0,
			"byteLength":1552,
			"byteOffset":74976,
			"target":34962
		},
		{
			"buffer":0,
			"byteLength":3104,
			"byteOffset":76528,
			"target":34962
		},
		{
			"buffer":0,
			"byteLength":1800,
			"byteOffset":79632,
			"target":34963
		},
		{
			"buffer":0,
			"byteLength":2328,
			"byteOffset":81432,
			"target":34962
		},
		{
			"buffer":0,
			"byteLength":2328,
			"byteOffset":83760,
			"target":34962
		},
		{
			"buffer":0,
			"byteLength":1552,
			"byteOffset":86088,
			"target":34962
		},
		{
			"buffer":0,
			"byteLength":3104,
			"byteOffset":87640,
			"target":34962
		},
		{
			"buffer":0,
			"byteLength":2328,
			"byteOffset":90744,
			"target":34962
		},
		{
			"buffer":0,
			"byteLength":2328,
			"byteOffset":93072,
			"target":34962
		},
		{
			"buffer":0,
			"byteLength":1552,
			"byteOffset":95400,
			"target":34962
		},
		{
			"buffer":0,
			"byteLength":3104,
			"byteOffset":96952,
			"target":34962
		},
		{
			"buffer":0,
			"byteLength":2328,
			"byteOffset":100056,
			"target":34962
		},
		{
			"buffer":0,
			"byteLength":2328,
			"byteOffset":102384,
			"target":34962
		},
		{
			"buffer":0,
			"byteLength":1552,
			"byteOffset":104712,
			"target":34962
		},
		{
			"buffer":0,
			"byteLength":3104,
			"byteOffset":106264,
			"target":34962
		},
		{
			"buffer":0,
			"byteLength":2328,
			"byteOffset":109368,
			"target":34962
		},
		{
			"buffer":0,
			"byteLength":2328,
			"byteOffset":111696,
			"target":34962
		},
		{
			"buffer":0,
			"byteLength":1552,
			"byteOffset":114024,
			"target":34962
		},
		{
			"buffer":0,
			"byteLength":3104,
			"byteOffset":115576,
			"target":34962
		},
		{
			"buffer":0,
			"byteLength":2328,
			"byteOffset":118680,
			"target":34962
		},
		{
			"buffer":0,
			"byteLength":2328,
			"byteOffset":121008,
			"target":34962
		},
		{
			"buffer":0,
			"byteLength":1552,
			"byteOffset":123336,
			"target":34962
		},
		{
			"buffer":0,
			"byteLength":3104,
			"byteOffset":124888,
			"target":34962
		}
	],
	"buffers":[
		{
			"byteLength":127992,
			"uri":"couch-e691036a61e9bae6646c06ce4cbeca46.bin"
		}
	]
}
