{
	"asset":{
		"generator":"Khronos glTF Blender I/O v4.3.47",
		"version":"2.0"
	},
	"extensionsUsed":[
		"KHR_lights_punctual"
	],
	"extensionsRequired":[
		"KHR_lights_punctual"
	],
	"extensions":{
		"KHR_lights_punctual":{
			"lights":[
				{
					"color":[
						1,
						1,
						1
					],
					"intensity":54351.41306588226,
					"type":"point",
					"name":"Light"
				}
			]
		}
	},
	"scene":0,
	"scenes":[
		{
			"name":"Scene",
			"nodes":[
				0,
				1,
				2,
				3,
				4
			]
		}
	],
	"nodes":[
		{
			"mesh":0,
			"name":"closet",
			"scale":[
				0.7123047113418579,
				2.6879773139953613,
				1.5821912288665771
			],
			"translation":[
				0,
				2.68984317779541,
				0
			]
		},
		{
			"extensions":{
				"KHR_lights_punctual":{
					"light":0
				}
			},
			"name":"Light",
			"rotation":[
				-0.28416627645492554,
				0.7269423007965088,
				0.34203392267227173,
				0.5232754945755005
			],
			"translation":[
				4.076245307922363,
				5.903861999511719,
				-1.0054539442062378
			]
		},
		{
			"camera":0,
			"name":"Camera",
			"rotation":[
				-0.04751376435160637,
				0.875245213508606,
				0.08788073062896729,
				0.4732496738433838
			],
			"translation":[
				14.988759994506836,
				6.238089561462402,
				-9.95591926574707
			]
		},
		{
			"mesh":1,
			"name":"doorLeft",
			"rotation":[
				0,
				-0.9063078165054321,
				0,
				0.42261824011802673
			],
			"scale":[
				0.7123047113418579,
				2.6879773139953613,
				1.5821912288665771
			],
			"translation":[
				0.7920516729354858,
				2.4573745727539062,
				1.5051298141479492
			]
		},
		{
			"mesh":2,
			"name":"doorRight",
			"rotation":[
				0,
				0.9063078165054321,
				0,
				0.42261824011802673
			],
			"scale":[
				0.7123047113418579,
				2.6879773139953613,
				1.5821912288665771
			],
			"translation":[
				0.7920516729354858,
				2.432767391204834,
				-1.516652226448059
			]
		}
	],
	"cameras":[
		{
			"name":"Camera",
			"perspective":{
				"aspectRatio":1.7777777777777777,
				"yfov":0.39959652046304894,
				"zfar":100,
				"znear":0.10000000149011612
			},
			"type":"perspective"
		}
	],
	"animations":[
		{
			"channels":[
				{
					"sampler":0,
					"target":{
						"node":3,
						"path":"rotation"
					}
				}
			],
			"name":"doorLeftClose",
			"samplers":[
				{
					"input":21,
					"interpolation":"LINEAR",
					"output":22
				}
			]
		},
		{
			"channels":[
				{
					"sampler":0,
					"target":{
						"node":3,
						"path":"rotation"
					}
				}
			],
			"name":"doorLeftOpen",
			"samplers":[
				{
					"input":21,
					"interpolation":"LINEAR",
					"output":23
				}
			]
		},
		{
			"channels":[
				{
					"sampler":0,
					"target":{
						"node":4,
						"path":"rotation"
					}
				}
			],
			"name":"doorRightClose",
			"samplers":[
				{
					"input":21,
					"interpolation":"LINEAR",
					"output":24
				}
			]
		},
		{
			"channels":[
				{
					"sampler":0,
					"target":{
						"node":4,
						"path":"rotation"
					}
				}
			],
			"name":"doorRightOpen",
			"samplers":[
				{
					"input":21,
					"interpolation":"LINEAR",
					"output":25
				}
			]
		}
	],
	"materials":[
		{
			"doubleSided":true,
			"name":"Material.001",
			"pbrMetallicRoughness":{
				"baseColorFactor":[
					0.13077805936336517,
					0.07382301986217499,
					0.04519011452794075,
					1
				],
				"metallicFactor":0
			}
		},
		{
			"doubleSided":true,
			"name":"Material.002",
			"pbrMetallicRoughness":{
				"baseColorFactor":[
					0.11814863234758377,
					0.11814863234758377,
					0.11814863234758377,
					1
				],
				"metallicFactor":0.1708860993385315,
				"roughnessFactor":0.5
			}
		}
	],
	"meshes":[
		{
			"name":"Cube",
			"primitives":[
				{
					"attributes":{
						"POSITION":0,
						"NORMAL":1,
						"TEXCOORD_0":2,
						"TANGENT":3
					},
					"indices":4,
					"material":0
				}
			]
		},
		{
			"name":"Cube.002",
			"primitives":[
				{
					"attributes":{
						"POSITION":5,
						"NORMAL":6,
						"TEXCOORD_0":7
					},
					"indices":8,
					"material":0
				},
				{
					"attributes":{
						"POSITION":9,
						"NORMAL":10,
						"TEXCOORD_0":11
					},
					"indices":12,
					"material":1
				}
			]
		},
		{
			"name":"Cube.003",
			"primitives":[
				{
					"attributes":{
						"POSITION":13,
						"NORMAL":14,
						"TEXCOORD_0":15
					},
					"indices":16,
					"material":0
				},
				{
					"attributes":{
						"POSITION":17,
						"NORMAL":18,
						"TEXCOORD_0":19
					},
					"indices":20,
					"material":1
				}
			]
		}
	],
	"accessors":[
		{
			"bufferView":0,
			"componentType":5126,
			"count":94,
			"max":[
				1.0807981491088867,
				1,
				1
			],
			"min":[
				-1,
				-1,
				-1
			],
			"type":"VEC3"
		},
		{
			"bufferView":1,
			"componentType":5126,
			"count":94,
			"type":"VEC3"
		},
		{
			"bufferView":2,
			"componentType":5126,
			"count":94,
			"type":"VEC2"
		},
		{
			"bufferView":3,
			"componentType":5126,
			"count":94,
			"type":"VEC4"
		},
		{
			"bufferView":4,
			"componentType":5123,
			"count":210,
			"type":"SCALAR"
		},
		{
			"bufferView":5,
			"componentType":5126,
			"count":20,
			"max":[
				-2.6941299438476562e-05,
				1.0523351430892944,
				0.01455610990524292
			],
			"min":[
				-0.031158089637756348,
				-0.8793660998344421,
				-0.8906208276748657
			],
			"type":"VEC3"
		},
		{
			"bufferView":6,
			"componentType":5126,
			"count":20,
			"type":"VEC3"
		},
		{
			"bufferView":7,
			"componentType":5126,
			"count":20,
			"type":"VEC2"
		},
		{
			"bufferView":8,
			"componentType":5123,
			"count":30,
			"type":"SCALAR"
		},
		{
			"bufferView":9,
			"componentType":5126,
			"count":432,
			"max":[
				0.2363266944885254,
				0.11094050854444504,
				-0.6681423187255859
			],
			"min":[
				-0.0022372007369995117,
				-0.11227564513683319,
				-0.7313457727432251
			],
			"type":"VEC3"
		},
		{
			"bufferView":10,
			"componentType":5126,
			"count":432,
			"type":"VEC3"
		},
		{
			"bufferView":11,
			"componentType":5126,
			"count":432,
			"type":"VEC2"
		},
		{
			"bufferView":12,
			"componentType":5123,
			"count":828,
			"type":"SCALAR"
		},
		{
			"bufferView":13,
			"componentType":5126,
			"count":20,
			"max":[
				-2.6941299438476562e-05,
				1.061737298965454,
				0.9032570719718933
			],
			"min":[
				-0.031158089637756348,
				-0.8704591393470764,
				-0.007521152496337891
			],
			"type":"VEC3"
		},
		{
			"bufferView":14,
			"componentType":5126,
			"count":20,
			"type":"VEC3"
		},
		{
			"bufferView":15,
			"componentType":5126,
			"count":20,
			"type":"VEC2"
		},
		{
			"bufferView":16,
			"componentType":5123,
			"count":30,
			"type":"SCALAR"
		},
		{
			"bufferView":17,
			"componentType":5126,
			"count":432,
			"max":[
				0.23632681369781494,
				0.12009518593549728,
				0.7229779958724976
			],
			"min":[
				-0.002237081527709961,
				-0.10312098264694214,
				0.6597744822502136
			],
			"type":"VEC3"
		},
		{
			"bufferView":18,
			"componentType":5126,
			"count":432,
			"type":"VEC3"
		},
		{
			"bufferView":19,
			"componentType":5126,
			"count":432,
			"type":"VEC2"
		},
		{
			"bufferView":20,
			"componentType":5123,
			"count":828,
			"type":"SCALAR"
		},
		{
			"bufferView":21,
			"componentType":5126,
			"count":30,
			"max":[
				1.25
			],
			"min":[
				0.041666666666666664
			],
			"type":"SCALAR"
		},
		{
			"bufferView":22,
			"componentType":5126,
			"count":30,
			"type":"VEC4"
		},
		{
			"bufferView":23,
			"componentType":5126,
			"count":30,
			"type":"VEC4"
		},
		{
			"bufferView":24,
			"componentType":5126,
			"count":30,
			"type":"VEC4"
		},
		{
			"bufferView":25,
			"componentType":5126,
			"count":30,
			"type":"VEC4"
		}
	],
	"bufferViews":[
		{
			"buffer":0,
			"byteLength":1128,
			"byteOffset":0,
			"target":34962
		},
		{
			"buffer":0,
			"byteLength":1128,
			"byteOffset":1128,
			"target":34962
		},
		{
			"buffer":0,
			"byteLength":752,
			"byteOffset":2256,
			"target":34962
		},
		{
			"buffer":0,
			"byteLength":1504,
			"byteOffset":3008,
			"target":34962
		},
		{
			"buffer":0,
			"byteLength":420,
			"byteOffset":4512,
			"target":34963
		},
		{
			"buffer":0,
			"byteLength":240,
			"byteOffset":4932,
			"target":34962
		},
		{
			"buffer":0,
			"byteLength":240,
			"byteOffset":5172,
			"target":34962
		},
		{
			"buffer":0,
			"byteLength":160,
			"byteOffset":5412,
			"target":34962
		},
		{
			"buffer":0,
			"byteLength":60,
			"byteOffset":5572,
			"target":34963
		},
		{
			"buffer":0,
			"byteLength":5184,
			"byteOffset":5632,
			"target":34962
		},
		{
			"buffer":0,
			"byteLength":5184,
			"byteOffset":10816,
			"target":34962
		},
		{
			"buffer":0,
			"byteLength":3456,
			"byteOffset":16000,
			"target":34962
		},
		{
			"buffer":0,
			"byteLength":1656,
			"byteOffset":19456,
			"target":34963
		},
		{
			"buffer":0,
			"byteLength":240,
			"byteOffset":21112,
			"target":34962
		},
		{
			"buffer":0,
			"byteLength":240,
			"byteOffset":21352,
			"target":34962
		},
		{
			"buffer":0,
			"byteLength":160,
			"byteOffset":21592,
			"target":34962
		},
		{
			"buffer":0,
			"byteLength":60,
			"byteOffset":21752,
			"target":34963
		},
		{
			"buffer":0,
			"byteLength":5184,
			"byteOffset":21812,
			"target":34962
		},
		{
			"buffer":0,
			"byteLength":5184,
			"byteOffset":26996,
			"target":34962
		},
		{
			"buffer":0,
			"byteLength":3456,
			"byteOffset":32180,
			"target":34962
		},
		{
			"buffer":0,
			"byteLength":1656,
			"byteOffset":35636,
			"target":34963
		},
		{
			"buffer":0,
			"byteLength":120,
			"byteOffset":37292
		},
		{
			"buffer":0,
			"byteLength":480,
			"byteOffset":37412
		},
		{
			"buffer":0,
			"byteLength":480,
			"byteOffset":37892
		},
		{
			"buffer":0,
			"byteLength":480,
			"byteOffset":38372
		},
		{
			"buffer":0,
			"byteLength":480,
			"byteOffset":38852
		}
	],
	"buffers":[
		{
			"byteLength":39332,
			"uri":"cupboard-25b94ab1423f4ca725dcee2c9344a9c7.bin"
		}
	]
}
