{
	"asset":{
		"generator":"Khronos glTF Blender I/O v4.3.47",
		"version":"2.0"
	},
	"extensionsUsed":[
		"KHR_lights_punctual"
	],
	"extensionsRequired":[
		"KHR_lights_punctual"
	],
	"extensions":{
		"KHR_lights_punctual":{
			"lights":[
				{
					"color":[
						1,
						1,
						1
					],
					"intensity":54351.41306588226,
					"type":"point",
					"name":"Light"
				}
			]
		}
	},
	"scene":0,
	"scenes":[
		{
			"name":"Scene",
			"nodes":[
				0,
				1,
				2
			]
		}
	],
	"nodes":[
		{
			"extensions":{
				"KHR_lights_punctual":{
					"light":0
				}
			},
			"name":"Light",
			"rotation":[
				-0.28416627645492554,
				0.7269423007965088,
				0.34203392267227173,
				0.5232754945755005
			],
			"translation":[
				2.778149127960205,
				6.179849147796631,
				6.269542694091797
			]
		},
		{
			"camera":0,
			"name":"Camera",
			"rotation":[
				0.0023272589314728975,
				0.009308263659477234,
				-2.166447666240856e-05,
				0.9999539852142334
			],
			"translation":[
				0.03862980008125305,
				3.482551336288452,
				21.684480667114258
			]
		},
		{
			"mesh":0,
			"name":"door",
			"rotation":[
				0,
				0.7071068286895752,
				0,
				0.7071068286895752
			],
			"translation":[
				-1.7592887878417969,
				3.3987576961517334,
				0.10684607923030853
			]
		}
	],
	"cameras":[
		{
			"name":"Camera",
			"perspective":{
				"aspectRatio":1.7777777777777777,
				"yfov":0.39959652046304894,
				"zfar":100,
				"znear":0.10000000149011612
			},
			"type":"perspective"
		}
	],
	"animations":[
		{
			"channels":[
				{
					"sampler":0,
					"target":{
						"node":2,
						"path":"rotation"
					}
				}
			],
			"name":"doorClose",
			"samplers":[
				{
					"input":14,
					"interpolation":"LINEAR",
					"output":15
				}
			]
		},
		{
			"channels":[
				{
					"sampler":0,
					"target":{
						"node":2,
						"path":"rotation"
					}
				}
			],
			"name":"doorOpen",
			"samplers":[
				{
					"input":14,
					"interpolation":"LINEAR",
					"output":16
				}
			]
		},
		{
			"channels":[
				{
					"sampler":0,
					"target":{
						"node":2,
						"path":"weights"
					}
				}
			],
			"name":"KeyAction",
			"samplers":[
				{
					"input":17,
					"interpolation":"LINEAR",
					"output":18
				}
			]
		}
	],
	"materials":[
		{
			"doubleSided":true,
			"name":"Material",
			"pbrMetallicRoughness":{
				"baseColorFactor":[
					0.17018380761146545,
					0.12104302644729614,
					0.06937897205352783,
					1
				],
				"metallicFactor":0
			}
		},
		{
			"doubleSided":true,
			"name":"Material.001",
			"pbrMetallicRoughness":{
				"baseColorFactor":[
					0.09295447170734406,
					0.09295447170734406,
					0.09295447170734406,
					1
				],
				"metallicFactor":0
			}
		}
	],
	"meshes":[
		{
			"extras":{
				"targetNames":[
					"Key 1"
				]
			},
			"name":"Cube.001",
			"primitives":[
				{
					"attributes":{
						"POSITION":0,
						"NORMAL":1,
						"TEXCOORD_0":2,
						"TANGENT":3
					},
					"indices":4,
					"material":0,
					"targets":[
						{
							"POSITION":5,
							"NORMAL":6
						}
					]
				},
				{
					"attributes":{
						"POSITION":7,
						"NORMAL":8,
						"TEXCOORD_0":9,
						"TANGENT":10
					},
					"indices":11,
					"material":1,
					"targets":[
						{
							"POSITION":12,
							"NORMAL":13
						}
					]
				}
			],
			"weights":[
				0
			]
		}
	],
	"accessors":[
		{
			"bufferView":0,
			"componentType":5126,
			"count":30262,
			"max":[
				3.7226364612579346,
				3.637786626815796,
				-2.8714537620544434e-05
			],
			"min":[
				-0.07557988166809082,
				-3.3555548191070557,
				-0.21366344392299652
			],
			"type":"VEC3"
		},
		{
			"bufferView":1,
			"componentType":5126,
			"count":30262,
			"type":"VEC3"
		},
		{
			"bufferView":2,
			"componentType":5126,
			"count":30262,
			"type":"VEC2"
		},
		{
			"bufferView":3,
			"componentType":5126,
			"count":30262,
			"type":"VEC4"
		},
		{
			"bufferView":4,
			"componentType":5123,
			"count":46644,
			"type":"SCALAR"
		},
		{
			"componentType":5126,
			"count":30262,
			"max":[
				0,
				0,
				0
			],
			"min":[
				0,
				0,
				0
			],
			"sparse":{
				"count":1,
				"indices":{
					"bufferView":5,
					"componentType":5121
				},
				"values":{
					"bufferView":6
				}
			},
			"type":"VEC3"
		},
		{
			"bufferView":7,
			"componentType":5126,
			"count":30262,
			"type":"VEC3"
		},
		{
			"bufferView":8,
			"componentType":5126,
			"count":1349,
			"max":[
				3.4761781692504883,
				-0.1640021800994873,
				0.23424552381038666
			],
			"min":[
				2.926248550415039,
				-0.4304177761077881,
				-0.44793766736984253
			],
			"type":"VEC3"
		},
		{
			"bufferView":9,
			"componentType":5126,
			"count":1349,
			"type":"VEC3"
		},
		{
			"bufferView":10,
			"componentType":5126,
			"count":1349,
			"type":"VEC2"
		},
		{
			"bufferView":11,
			"componentType":5126,
			"count":1349,
			"type":"VEC4"
		},
		{
			"bufferView":12,
			"componentType":5123,
			"count":5652,
			"type":"SCALAR"
		},
		{
			"bufferView":13,
			"componentType":5126,
			"count":1349,
			"max":[
				0.02286386489868164,
				0.015650004148483276,
				1.4901161193847656e-08
			],
			"min":[
				-0.0186309814453125,
				-0.10794740915298462,
				-7.450580596923828e-09
			],
			"type":"VEC3"
		},
		{
			"bufferView":14,
			"componentType":5126,
			"count":1349,
			"type":"VEC3"
		},
		{
			"bufferView":15,
			"componentType":5126,
			"count":40,
			"max":[
				1.6666666666666667
			],
			"min":[
				0.041666666666666664
			],
			"type":"SCALAR"
		},
		{
			"bufferView":16,
			"componentType":5126,
			"count":40,
			"type":"VEC4"
		},
		{
			"bufferView":17,
			"componentType":5126,
			"count":40,
			"type":"VEC4"
		},
		{
			"bufferView":18,
			"componentType":5126,
			"count":30,
			"max":[
				1.25
			],
			"min":[
				0.041666666666666664
			],
			"type":"SCALAR"
		},
		{
			"bufferView":19,
			"componentType":5126,
			"count":30,
			"type":"SCALAR"
		}
	],
	"bufferViews":[
		{
			"buffer":0,
			"byteLength":363144,
			"byteOffset":0,
			"target":34962
		},
		{
			"buffer":0,
			"byteLength":363144,
			"byteOffset":363144,
			"target":34962
		},
		{
			"buffer":0,
			"byteLength":242096,
			"byteOffset":726288,
			"target":34962
		},
		{
			"buffer":0,
			"byteLength":484192,
			"byteOffset":968384,
			"target":34962
		},
		{
			"buffer":0,
			"byteLength":93288,
			"byteOffset":1452576,
			"target":34963
		},
		{
			"buffer":0,
			"byteLength":1,
			"byteOffset":1545864
		},
		{
			"buffer":0,
			"byteLength":12,
			"byteOffset":1545868
		},
		{
			"buffer":0,
			"byteLength":363144,
			"byteOffset":1545880,
			"target":34962
		},
		{
			"buffer":0,
			"byteLength":16188,
			"byteOffset":1909024,
			"target":34962
		},
		{
			"buffer":0,
			"byteLength":16188,
			"byteOffset":1925212,
			"target":34962
		},
		{
			"buffer":0,
			"byteLength":10792,
			"byteOffset":1941400,
			"target":34962
		},
		{
			"buffer":0,
			"byteLength":21584,
			"byteOffset":1952192,
			"target":34962
		},
		{
			"buffer":0,
			"byteLength":11304,
			"byteOffset":1973776,
			"target":34963
		},
		{
			"buffer":0,
			"byteLength":16188,
			"byteOffset":1985080,
			"target":34962
		},
		{
			"buffer":0,
			"byteLength":16188,
			"byteOffset":2001268,
			"target":34962
		},
		{
			"buffer":0,
			"byteLength":160,
			"byteOffset":2017456
		},
		{
			"buffer":0,
			"byteLength":640,
			"byteOffset":2017616
		},
		{
			"buffer":0,
			"byteLength":640,
			"byteOffset":2018256
		},
		{
			"buffer":0,
			"byteLength":120,
			"byteOffset":2018896
		},
		{
			"buffer":0,
			"byteLength":120,
			"byteOffset":2019016
		}
	],
	"buffers":[
		{
			"byteLength":2019136,
			"uri":"door-8860f3bf97171c8edd0dc1e13e845560.bin"
		}
	]
}
