{
	"asset":{
		"generator":"Khronos glTF Blender I/O v4.3.47",
		"version":"2.0"
	},
	"extensionsUsed":[
		"KHR_lights_punctual",
		"KHR_materials_specular",
		"KHR_materials_ior"
	],
	"extensionsRequired":[
		"KHR_lights_punctual"
	],
	"extensions":{
		"KHR_lights_punctual":{
			"lights":[
				{
					"color":[
						1,
						1,
						1
					],
					"intensity":27175.70653294113,
					"type":"point",
					"name":"Light"
				}
			]
		}
	},
	"scene":0,
	"scenes":[
		{
			"name":"Scene",
			"nodes":[
				0,
				1,
				2
			]
		}
	],
	"nodes":[
		{
			"extensions":{
				"KHR_lights_punctual":{
					"light":0
				}
			},
			"name":"Light",
			"rotation":[
				-0.28416627645492554,
				0.7269423007965088,
				0.34203392267227173,
				0.5232754945755005
			],
			"translation":[
				0.5743932723999023,
				1.268800973892212,
				2.6379504203796387
			]
		},
		{
			"camera":0,
			"name":"Camera",
			"rotation":[
				-0.034736111760139465,
				0.6178038120269775,
				0.027333972975611687,
				0.7850890159606934
			],
			"translation":[
				3.2905914783477783,
				0.6662918329238892,
				0.6131079792976379
			]
		},
		{
			"mesh":0,
			"name":"Plane",
			"rotation":[
				0.7071068286895752,
				0,
				0,
				0.7071068286895752
			],
			"scale":[
				0.3826223611831665,
				0.3826223611831665,
				0.3826223611831665
			],
			"translation":[
				0.47760066390037537,
				0.4898468255996704,
				0
			]
		}
	],
	"cameras":[
		{
			"name":"Camera",
			"perspective":{
				"aspectRatio":1.7777777777777777,
				"yfov":0.39959652046304894,
				"zfar":100,
				"znear":0.10000000149011612
			},
			"type":"perspective"
		}
	],
	"materials":[
		{
			"doubleSided":true,
			"extensions":{
				"KHR_materials_specular":{
					"specularFactor":0
				},
				"KHR_materials_ior":{
					"ior":1.4500000476837158
				}
			},
			"name":"Material",
			"pbrMetallicRoughness":{
				"baseColorFactor":[
					0.4867805242538452,
					0.4867805242538452,
					0.4867805242538452,
					1
				],
				"metallicFactor":0
			}
		}
	],
	"meshes":[
		{
			"name":"Plane",
			"primitives":[
				{
					"attributes":{
						"POSITION":0,
						"NORMAL":1,
						"TEXCOORD_0":2,
						"TANGENT":3
					},
					"indices":4,
					"material":0
				}
			]
		}
	],
	"accessors":[
		{
			"bufferView":0,
			"componentType":5126,
			"count":4873,
			"max":[
				1,
				0.08803156018257141,
				1
			],
			"min":[
				-1,
				-0.07146336138248444,
				-1
			],
			"type":"VEC3"
		},
		{
			"bufferView":1,
			"componentType":5126,
			"count":4873,
			"type":"VEC3"
		},
		{
			"bufferView":2,
			"componentType":5126,
			"count":4873,
			"type":"VEC2"
		},
		{
			"bufferView":3,
			"componentType":5126,
			"count":4873,
			"type":"VEC4"
		},
		{
			"bufferView":4,
			"componentType":5123,
			"count":7428,
			"type":"SCALAR"
		}
	],
	"bufferViews":[
		{
			"buffer":0,
			"byteLength":58476,
			"byteOffset":0,
			"target":34962
		},
		{
			"buffer":0,
			"byteLength":58476,
			"byteOffset":58476,
			"target":34962
		},
		{
			"buffer":0,
			"byteLength":38984,
			"byteOffset":116952,
			"target":34962
		},
		{
			"buffer":0,
			"byteLength":77968,
			"byteOffset":155936,
			"target":34962
		},
		{
			"buffer":0,
			"byteLength":14856,
			"byteOffset":233904,
			"target":34963
		}
	],
	"buffers":[
		{
			"byteLength":248760,
			"uri":"lightSwitch-ae4cc148dd8fe7b25291f5543b83f638.bin"
		}
	]
}
