{
	"asset":{
		"generator":"Khronos glTF Blender I/O v4.3.47",
		"version":"2.0"
	},
	"extensionsUsed":[
		"KHR_lights_punctual",
		"KHR_materials_specular",
		"KHR_materials_ior"
	],
	"extensionsRequired":[
		"KHR_lights_punctual"
	],
	"extensions":{
		"KHR_lights_punctual":{
			"lights":[
				{
					"color":[
						1,
						1,
						1
					],
					"intensity":54351.41306588226,
					"type":"point",
					"name":"Light"
				}
			]
		}
	},
	"scene":0,
	"scenes":[
		{
			"name":"Scene",
			"nodes":[
				0,
				1,
				2,
				3,
				4,
				5,
				6,
				7,
				8,
				9,
				10,
				11
			]
		}
	],
	"nodes":[
		{
			"extensions":{
				"KHR_lights_punctual":{
					"light":0
				}
			},
			"name":"Light",
			"rotation":[
				-0.28416627645492554,
				0.7269423007965088,
				0.34203392267227173,
				0.5232754945755005
			],
			"translation":[
				5.659738540649414,
				3.3926539421081543,
				-1.5534751415252686
			]
		},
		{
			"camera":0,
			"name":"Camera",
			"rotation":[
				-0.04069597274065018,
				0.8849519491195679,
				0.07877703756093979,
				0.45716309547424316
			],
			"translation":[
				11.483421325683594,
				3.4718403816223145,
				-8.169424057006836
			]
		},
		{
			"mesh":0,
			"name":"tableRimBottom",
			"scale":[
				2.2843434810638428,
				2.2843434810638428,
				2.2843434810638428
			],
			"translation":[
				0,
				0.13470785319805145,
				0
			]
		},
		{
			"mesh":1,
			"name":"leg1",
			"scale":[
				0.041809555143117905,
				0.9776875972747803,
				0.041809555143117905
			],
			"translation":[
				2.2441859245300293,
				0.9149876236915588,
				0
			]
		},
		{
			"mesh":2,
			"name":"tableRimTop",
			"scale":[
				2.2512171268463135,
				2.2512171268463135,
				2.2512171268463135
			],
			"translation":[
				0,
				1.8796476125717163,
				0
			]
		},
		{
			"mesh":3,
			"name":"leg2",
			"scale":[
				0.041809555143117905,
				0.9776875972747803,
				0.041809555143117905
			],
			"translation":[
				0.011811494827270508,
				0.9149876236915588,
				-2.2441861629486084
			]
		},
		{
			"mesh":4,
			"name":"leg3",
			"scale":[
				0.041809555143117905,
				0.9776875972747803,
				0.041809555143117905
			],
			"translation":[
				-0.009449481964111328,
				0.9149876236915588,
				2.2465481758117676
			]
		},
		{
			"mesh":5,
			"name":"leg4",
			"scale":[
				0.041809555143117905,
				0.9776875972747803,
				0.041809555143117905
			],
			"translation":[
				-2.24182391166687,
				0.9149876236915588,
				0.0023620128631591797
			]
		},
		{
			"mesh":6,
			"name":"tableSurfaceTop",
			"scale":[
				2.2512171268463135,
				2.2512171268463135,
				2.2512171268463135
			],
			"translation":[
				0,
				1.8796476125717163,
				0
			]
		},
		{
			"mesh":7,
			"name":"tableSurfaceBottom",
			"scale":[
				2.2843434810638428,
				2.2843434810638428,
				2.2843434810638428
			],
			"translation":[
				0,
				0.13470785319805145,
				0
			]
		},
		{
			"mesh":8,
			"name":"tableRimTop.001",
			"scale":[
				2.2512171268463135,
				2.2512171268463135,
				2.2512171268463135
			],
			"translation":[
				0,
				1.8796476125717163,
				0
			]
		},
		{
			"mesh":9,
			"name":"tableRimBottom.001",
			"scale":[
				2.2843434810638428,
				2.2843434810638428,
				2.2843434810638428
			],
			"translation":[
				0,
				0.13470785319805145,
				0
			]
		}
	],
	"cameras":[
		{
			"name":"Camera",
			"perspective":{
				"aspectRatio":1.7777777777777777,
				"yfov":0.39959652046304894,
				"zfar":100,
				"znear":0.10000000149011612
			},
			"type":"perspective"
		}
	],
	"materials":[
		{
			"doubleSided":true,
			"extensions":{
				"KHR_materials_specular":{
					"specularFactor":0
				}
			},
			"name":"Material.001",
			"pbrMetallicRoughness":{
				"baseColorFactor":[
					0.06586379557847977,
					0.03220013901591301,
					0.012553238309919834,
					1
				],
				"metallicFactor":0
			}
		},
		{
			"doubleSided":true,
			"extensions":{
				"KHR_materials_specular":{
					"specularFactor":0
				},
				"KHR_materials_ior":{
					"ior":1.4500000476837158
				}
			},
			"name":"Material",
			"pbrMetallicRoughness":{
				"baseColorFactor":[
					0.3092813193798065,
					0.18907225131988525,
					0.08199751377105713,
					1
				],
				"metallicFactor":0
			}
		},
		{
			"doubleSided":true,
			"extensions":{
				"KHR_materials_specular":{
					"specularFactor":0
				}
			},
			"name":"Material.002",
			"pbrMetallicRoughness":{
				"baseColorFactor":[
					0.16122953593730927,
					0.07493115961551666,
					0.026499059051275253,
					1
				],
				"metallicFactor":0
			}
		}
	],
	"meshes":[
		{
			"name":"Circle",
			"primitives":[
				{
					"attributes":{
						"POSITION":0,
						"NORMAL":1,
						"TEXCOORD_0":2
					},
					"indices":3,
					"material":0
				}
			]
		},
		{
			"name":"Cube.001",
			"primitives":[
				{
					"attributes":{
						"POSITION":4,
						"NORMAL":5,
						"TEXCOORD_0":6,
						"TANGENT":7
					},
					"indices":8,
					"material":0
				}
			]
		},
		{
			"name":"Circle.002",
			"primitives":[
				{
					"attributes":{
						"POSITION":9,
						"NORMAL":10,
						"TEXCOORD_0":11
					},
					"indices":3,
					"material":0
				}
			]
		},
		{
			"name":"Cube.002",
			"primitives":[
				{
					"attributes":{
						"POSITION":12,
						"NORMAL":13,
						"TEXCOORD_0":14,
						"TANGENT":15
					},
					"indices":8,
					"material":0
				}
			]
		},
		{
			"name":"Cube.003",
			"primitives":[
				{
					"attributes":{
						"POSITION":16,
						"NORMAL":17,
						"TEXCOORD_0":18,
						"TANGENT":19
					},
					"indices":8,
					"material":0
				}
			]
		},
		{
			"name":"Cube.004",
			"primitives":[
				{
					"attributes":{
						"POSITION":20,
						"NORMAL":21,
						"TEXCOORD_0":22,
						"TANGENT":23
					},
					"indices":8,
					"material":0
				}
			]
		},
		{
			"name":"Circle.003",
			"primitives":[
				{
					"attributes":{
						"POSITION":24,
						"NORMAL":25,
						"TEXCOORD_0":26
					},
					"indices":27,
					"material":1
				}
			]
		},
		{
			"name":"Circle.004",
			"primitives":[
				{
					"attributes":{
						"POSITION":28,
						"NORMAL":29,
						"TEXCOORD_0":30
					},
					"indices":27,
					"material":1
				}
			]
		},
		{
			"name":"Circle.001",
			"primitives":[
				{
					"attributes":{
						"POSITION":31,
						"NORMAL":32,
						"TEXCOORD_0":33,
						"TANGENT":34
					},
					"indices":35,
					"material":2
				}
			]
		},
		{
			"name":"Circle.005",
			"primitives":[
				{
					"attributes":{
						"POSITION":36,
						"NORMAL":37,
						"TEXCOORD_0":38,
						"TANGENT":39
					},
					"indices":35,
					"material":0
				}
			]
		}
	],
	"accessors":[
		{
			"bufferView":0,
			"componentType":5126,
			"count":160,
			"max":[
				1.0218511819839478,
				0.0684094950556755,
				1.0218511819839478
			],
			"min":[
				-1.0218511819839478,
				-0.0003676805645227432,
				-1.0218511819839478
			],
			"type":"VEC3"
		},
		{
			"bufferView":1,
			"componentType":5126,
			"count":160,
			"type":"VEC3"
		},
		{
			"bufferView":2,
			"componentType":5126,
			"count":160,
			"type":"VEC2"
		},
		{
			"bufferView":3,
			"componentType":5123,
			"count":666,
			"type":"SCALAR"
		},
		{
			"bufferView":4,
			"componentType":5126,
			"count":1176,
			"max":[
				1,
				1,
				1
			],
			"min":[
				-1,
				-1,
				-1
			],
			"type":"VEC3"
		},
		{
			"bufferView":5,
			"componentType":5126,
			"count":1176,
			"type":"VEC3"
		},
		{
			"bufferView":6,
			"componentType":5126,
			"count":1176,
			"type":"VEC2"
		},
		{
			"bufferView":7,
			"componentType":5126,
			"count":1176,
			"type":"VEC4"
		},
		{
			"bufferView":8,
			"componentType":5123,
			"count":1764,
			"type":"SCALAR"
		},
		{
			"bufferView":9,
			"componentType":5126,
			"count":160,
			"max":[
				1.0218511819839478,
				0.0684094950556755,
				1.0218511819839478
			],
			"min":[
				-1.0218511819839478,
				-0.0003676805645227432,
				-1.0218511819839478
			],
			"type":"VEC3"
		},
		{
			"bufferView":10,
			"componentType":5126,
			"count":160,
			"type":"VEC3"
		},
		{
			"bufferView":11,
			"componentType":5126,
			"count":160,
			"type":"VEC2"
		},
		{
			"bufferView":12,
			"componentType":5126,
			"count":1176,
			"max":[
				1,
				1,
				1
			],
			"min":[
				-1,
				-1,
				-1
			],
			"type":"VEC3"
		},
		{
			"bufferView":13,
			"componentType":5126,
			"count":1176,
			"type":"VEC3"
		},
		{
			"bufferView":14,
			"componentType":5126,
			"count":1176,
			"type":"VEC2"
		},
		{
			"bufferView":15,
			"componentType":5126,
			"count":1176,
			"type":"VEC4"
		},
		{
			"bufferView":16,
			"componentType":5126,
			"count":1176,
			"max":[
				1,
				1,
				1
			],
			"min":[
				-1,
				-1,
				-1
			],
			"type":"VEC3"
		},
		{
			"bufferView":17,
			"componentType":5126,
			"count":1176,
			"type":"VEC3"
		},
		{
			"bufferView":18,
			"componentType":5126,
			"count":1176,
			"type":"VEC2"
		},
		{
			"bufferView":19,
			"componentType":5126,
			"count":1176,
			"type":"VEC4"
		},
		{
			"bufferView":20,
			"componentType":5126,
			"count":1176,
			"max":[
				1,
				1,
				1
			],
			"min":[
				-1,
				-1,
				-1
			],
			"type":"VEC3"
		},
		{
			"bufferView":21,
			"componentType":5126,
			"count":1176,
			"type":"VEC3"
		},
		{
			"bufferView":22,
			"componentType":5126,
			"count":1176,
			"type":"VEC2"
		},
		{
			"bufferView":23,
			"componentType":5126,
			"count":1176,
			"type":"VEC4"
		},
		{
			"bufferView":24,
			"componentType":5126,
			"count":32,
			"max":[
				1,
				0.06730645149946213,
				1
			],
			"min":[
				-1,
				0.06730645149946213,
				-1
			],
			"type":"VEC3"
		},
		{
			"bufferView":25,
			"componentType":5126,
			"count":32,
			"type":"VEC3"
		},
		{
			"bufferView":26,
			"componentType":5126,
			"count":32,
			"type":"VEC2"
		},
		{
			"bufferView":27,
			"componentType":5123,
			"count":90,
			"type":"SCALAR"
		},
		{
			"bufferView":28,
			"componentType":5126,
			"count":32,
			"max":[
				1,
				0.06730645149946213,
				1
			],
			"min":[
				-1,
				0.06730645149946213,
				-1
			],
			"type":"VEC3"
		},
		{
			"bufferView":29,
			"componentType":5126,
			"count":32,
			"type":"VEC3"
		},
		{
			"bufferView":30,
			"componentType":5126,
			"count":32,
			"type":"VEC2"
		},
		{
			"bufferView":31,
			"componentType":5126,
			"count":128,
			"max":[
				1.0218511819839478,
				0.1071736216545105,
				1.0218511819839478
			],
			"min":[
				-1.0218511819839478,
				0.06730645149946213,
				-1.0218511819839478
			],
			"type":"VEC3"
		},
		{
			"bufferView":32,
			"componentType":5126,
			"count":128,
			"type":"VEC3"
		},
		{
			"bufferView":33,
			"componentType":5126,
			"count":128,
			"type":"VEC2"
		},
		{
			"bufferView":34,
			"componentType":5126,
			"count":128,
			"type":"VEC4"
		},
		{
			"bufferView":35,
			"componentType":5123,
			"count":576,
			"type":"SCALAR"
		},
		{
			"bufferView":36,
			"componentType":5126,
			"count":128,
			"max":[
				1.0218511819839478,
				0.07920844107866287,
				1.0218511819839478
			],
			"min":[
				-1.0218511819839478,
				0.06730645149946213,
				-1.0218511819839478
			],
			"type":"VEC3"
		},
		{
			"bufferView":37,
			"componentType":5126,
			"count":128,
			"type":"VEC3"
		},
		{
			"bufferView":38,
			"componentType":5126,
			"count":128,
			"type":"VEC2"
		},
		{
			"bufferView":39,
			"componentType":5126,
			"count":128,
			"type":"VEC4"
		}
	],
	"bufferViews":[
		{
			"buffer":0,
			"byteLength":1920,
			"byteOffset":0,
			"target":34962
		},
		{
			"buffer":0,
			"byteLength":1920,
			"byteOffset":1920,
			"target":34962
		},
		{
			"buffer":0,
			"byteLength":1280,
			"byteOffset":3840,
			"target":34962
		},
		{
			"buffer":0,
			"byteLength":1332,
			"byteOffset":5120,
			"target":34963
		},
		{
			"buffer":0,
			"byteLength":14112,
			"byteOffset":6452,
			"target":34962
		},
		{
			"buffer":0,
			"byteLength":14112,
			"byteOffset":20564,
			"target":34962
		},
		{
			"buffer":0,
			"byteLength":9408,
			"byteOffset":34676,
			"target":34962
		},
		{
			"buffer":0,
			"byteLength":18816,
			"byteOffset":44084,
			"target":34962
		},
		{
			"buffer":0,
			"byteLength":3528,
			"byteOffset":62900,
			"target":34963
		},
		{
			"buffer":0,
			"byteLength":1920,
			"byteOffset":66428,
			"target":34962
		},
		{
			"buffer":0,
			"byteLength":1920,
			"byteOffset":68348,
			"target":34962
		},
		{
			"buffer":0,
			"byteLength":1280,
			"byteOffset":70268,
			"target":34962
		},
		{
			"buffer":0,
			"byteLength":14112,
			"byteOffset":71548,
			"target":34962
		},
		{
			"buffer":0,
			"byteLength":14112,
			"byteOffset":85660,
			"target":34962
		},
		{
			"buffer":0,
			"byteLength":9408,
			"byteOffset":99772,
			"target":34962
		},
		{
			"buffer":0,
			"byteLength":18816,
			"byteOffset":109180,
			"target":34962
		},
		{
			"buffer":0,
			"byteLength":14112,
			"byteOffset":127996,
			"target":34962
		},
		{
			"buffer":0,
			"byteLength":14112,
			"byteOffset":142108,
			"target":34962
		},
		{
			"buffer":0,
			"byteLength":9408,
			"byteOffset":156220,
			"target":34962
		},
		{
			"buffer":0,
			"byteLength":18816,
			"byteOffset":165628,
			"target":34962
		},
		{
			"buffer":0,
			"byteLength":14112,
			"byteOffset":184444,
			"target":34962
		},
		{
			"buffer":0,
			"byteLength":14112,
			"byteOffset":198556,
			"target":34962
		},
		{
			"buffer":0,
			"byteLength":9408,
			"byteOffset":212668,
			"target":34962
		},
		{
			"buffer":0,
			"byteLength":18816,
			"byteOffset":222076,
			"target":34962
		},
		{
			"buffer":0,
			"byteLength":384,
			"byteOffset":240892,
			"target":34962
		},
		{
			"buffer":0,
			"byteLength":384,
			"byteOffset":241276,
			"target":34962
		},
		{
			"buffer":0,
			"byteLength":256,
			"byteOffset":241660,
			"target":34962
		},
		{
			"buffer":0,
			"byteLength":180,
			"byteOffset":241916,
			"target":34963
		},
		{
			"buffer":0,
			"byteLength":384,
			"byteOffset":242096,
			"target":34962
		},
		{
			"buffer":0,
			"byteLength":384,
			"byteOffset":242480,
			"target":34962
		},
		{
			"buffer":0,
			"byteLength":256,
			"byteOffset":242864,
			"target":34962
		},
		{
			"buffer":0,
			"byteLength":1536,
			"byteOffset":243120,
			"target":34962
		},
		{
			"buffer":0,
			"byteLength":1536,
			"byteOffset":244656,
			"target":34962
		},
		{
			"buffer":0,
			"byteLength":1024,
			"byteOffset":246192,
			"target":34962
		},
		{
			"buffer":0,
			"byteLength":2048,
			"byteOffset":247216,
			"target":34962
		},
		{
			"buffer":0,
			"byteLength":1152,
			"byteOffset":249264,
			"target":34963
		},
		{
			"buffer":0,
			"byteLength":1536,
			"byteOffset":250416,
			"target":34962
		},
		{
			"buffer":0,
			"byteLength":1536,
			"byteOffset":251952,
			"target":34962
		},
		{
			"buffer":0,
			"byteLength":1024,
			"byteOffset":253488,
			"target":34962
		},
		{
			"buffer":0,
			"byteLength":2048,
			"byteOffset":254512,
			"target":34962
		}
	],
	"buffers":[
		{
			"byteLength":256560,
			"uri":"livingroomTable-74dc10bf8ed50247c042995d31194764.bin"
		}
	]
}
