{
	"asset":{
		"generator":"Khronos glTF Blender I/O v4.3.47",
		"version":"2.0"
	},
	"extensionsUsed":[
		"KHR_materials_specular",
		"KHR_lights_punctual"
	],
	"extensionsRequired":[
		"KHR_lights_punctual"
	],
	"extensions":{
		"KHR_lights_punctual":{
			"lights":[
				{
					"color":[
						1,
						1,
						1
					],
					"intensity":54351.41306588226,
					"type":"point",
					"name":"Light"
				}
			]
		}
	},
	"scene":0,
	"scenes":[
		{
			"name":"Scene",
			"nodes":[
				0,
				1,
				2,
				3,
				4,
				5,
				6,
				7,
				8,
				9,
				10,
				11
			]
		}
	],
	"nodes":[
		{
			"mesh":0,
			"name":"Cube",
			"scale":[
				1.205246090888977,
				1,
				1
			],
			"translation":[
				0.001845918595790863,
				1.0899090766906738,
				0
			]
		},
		{
			"extensions":{
				"KHR_lights_punctual":{
					"light":0
				}
			},
			"name":"Light",
			"rotation":[
				-0.28416627645492554,
				0.7269423007965088,
				0.34203392267227173,
				0.5232754945755005
			],
			"translation":[
				1.9130427837371826,
				5.528538227081299,
				3.0839128494262695
			]
		},
		{
			"camera":0,
			"name":"Camera",
			"rotation":[
				-0.15071755647659302,
				0.3948969841003418,
				0.06584686785936356,
				0.903883159160614
			],
			"translation":[
				12.853069305419922,
				7.747646808624268,
				11.116570472717285
			]
		},
		{
			"mesh":1,
			"name":"Cube.001",
			"rotation":[
				-0.13549615442752838,
				0,
				0,
				0.9907779097557068
			],
			"scale":[
				1.205246090888977,
				1,
				1
			],
			"translation":[
				0.001845918595790863,
				2.36031436920166,
				-2.7534732818603516
			]
		},
		{
			"mesh":2,
			"name":"Cube.002",
			"rotation":[
				0.4545195400714874,
				0.45451945066452026,
				-0.5416752099990845,
				0.5416752696037292
			],
			"scale":[
				0.47702303528785706,
				0.5770799517631531,
				0.3957262337207794
			],
			"translation":[
				1.206284999847412,
				0,
				0.8270421028137207
			]
		},
		{
			"mesh":3,
			"name":"Cube.003",
			"rotation":[
				0.5416752696037292,
				0.5416752099990845,
				-0.45451948046684265,
				0.45451945066452026
			],
			"scale":[
				0.47702303528785706,
				0.5770799517631531,
				0.3957262337207794
			],
			"translation":[
				1.206284999847412,
				0,
				-2.4683687686920166
			]
		},
		{
			"mesh":4,
			"name":"Cube.004",
			"rotation":[
				-1,
				0,
				0,
				4.371138828673793e-08
			],
			"scale":[
				0.5749301910400391,
				0.478806734085083,
				0.4453793168067932
			],
			"translation":[
				1.259833812713623,
				2.8064143657684326,
				-2.436443567276001
			]
		},
		{
			"mesh":5,
			"name":"Cube.005",
			"rotation":[
				-0.7071068286895752,
				0.7071068286895752,
				0,
				3.090862321641907e-08
			],
			"scale":[
				0.47702306509017944,
				0.5770799517631531,
				0.37786850333213806
			],
			"translation":[
				1.313382863998413,
				1.6568374633789062,
				-2.1045401096343994
			]
		},
		{
			"mesh":6,
			"name":"Cube.006",
			"rotation":[
				0.4545195400714874,
				0.45451945066452026,
				-0.5416752099990845,
				0.5416752696037292
			],
			"scale":[
				0.47702303528785706,
				0.5770799517631531,
				0.3957262337207794
			],
			"translation":[
				-1.3100156784057617,
				0,
				0.8270421028137207
			]
		},
		{
			"mesh":7,
			"name":"Cube.007",
			"rotation":[
				0.5416752696037292,
				0.5416752099990845,
				-0.45451948046684265,
				0.45451945066452026
			],
			"scale":[
				0.47702303528785706,
				0.5770799517631531,
				0.3957262337207794
			],
			"translation":[
				-1.3100156784057617,
				0,
				-2.4683687686920166
			]
		},
		{
			"mesh":8,
			"name":"Cube.008",
			"rotation":[
				-1,
				0,
				0,
				4.371138828673793e-08
			],
			"scale":[
				0.5749301910400391,
				0.478806734085083,
				0.4453793168067932
			],
			"translation":[
				-1.2564666271209717,
				2.8064143657684326,
				-2.436443567276001
			]
		},
		{
			"mesh":9,
			"name":"Cube.009",
			"rotation":[
				-0.7071068286895752,
				0.7071068286895752,
				0,
				3.090862321641907e-08
			],
			"scale":[
				0.47702306509017944,
				0.5770799517631531,
				0.37786850333213806
			],
			"translation":[
				-1.2029178142547607,
				1.6568374633789062,
				-2.1045401096343994
			]
		}
	],
	"cameras":[
		{
			"name":"Camera",
			"perspective":{
				"aspectRatio":1.7777777777777777,
				"yfov":0.39959652046304894,
				"zfar":100,
				"znear":0.10000000149011612
			},
			"type":"perspective"
		}
	],
	"materials":[
		{
			"doubleSided":true,
			"name":"Material",
			"pbrMetallicRoughness":{
				"baseColorFactor":[
					0.045493051409721375,
					0.04860726743936539,
					0.11571193486452103,
					1
				],
				"metallicFactor":0
			}
		},
		{
			"doubleSided":true,
			"extensions":{
				"KHR_materials_specular":{
					"specularFactor":0
				}
			},
			"name":"Material.001",
			"pbrMetallicRoughness":{
				"baseColorFactor":[
					0.19806817173957825,
					0.11443549394607544,
					0.0761854499578476,
					1
				],
				"metallicFactor":0
			}
		}
	],
	"meshes":[
		{
			"name":"Cube",
			"primitives":[
				{
					"attributes":{
						"POSITION":0,
						"NORMAL":1,
						"TEXCOORD_0":2
					},
					"indices":3,
					"material":0
				}
			]
		},
		{
			"name":"Cube.001",
			"primitives":[
				{
					"attributes":{
						"POSITION":4,
						"NORMAL":5,
						"TEXCOORD_0":6,
						"TANGENT":7
					},
					"indices":8,
					"material":0
				}
			]
		},
		{
			"name":"Cube.002",
			"primitives":[
				{
					"attributes":{
						"POSITION":9,
						"NORMAL":10,
						"TEXCOORD_0":11,
						"TANGENT":12
					},
					"indices":13,
					"material":1
				}
			]
		},
		{
			"name":"Cube.003",
			"primitives":[
				{
					"attributes":{
						"POSITION":14,
						"NORMAL":15,
						"TEXCOORD_0":16,
						"TANGENT":17
					},
					"indices":13,
					"material":1
				}
			]
		},
		{
			"name":"Cube.004",
			"primitives":[
				{
					"attributes":{
						"POSITION":18,
						"NORMAL":19,
						"TEXCOORD_0":20,
						"TANGENT":21
					},
					"indices":13,
					"material":1
				}
			]
		},
		{
			"name":"Cube.005",
			"primitives":[
				{
					"attributes":{
						"POSITION":22,
						"NORMAL":23,
						"TEXCOORD_0":24,
						"TANGENT":25
					},
					"indices":13,
					"material":1
				}
			]
		},
		{
			"name":"Cube.006",
			"primitives":[
				{
					"attributes":{
						"POSITION":26,
						"NORMAL":27,
						"TEXCOORD_0":28,
						"TANGENT":29
					},
					"indices":13,
					"material":1
				}
			]
		},
		{
			"name":"Cube.007",
			"primitives":[
				{
					"attributes":{
						"POSITION":30,
						"NORMAL":31,
						"TEXCOORD_0":32,
						"TANGENT":33
					},
					"indices":13,
					"material":1
				}
			]
		},
		{
			"name":"Cube.008",
			"primitives":[
				{
					"attributes":{
						"POSITION":34,
						"NORMAL":35,
						"TEXCOORD_0":36,
						"TANGENT":37
					},
					"indices":13,
					"material":1
				}
			]
		},
		{
			"name":"Cube.009",
			"primitives":[
				{
					"attributes":{
						"POSITION":38,
						"NORMAL":39,
						"TEXCOORD_0":40,
						"TANGENT":41
					},
					"indices":13,
					"material":1
				}
			]
		}
	],
	"accessors":[
		{
			"bufferView":0,
			"componentType":5126,
			"count":531,
			"max":[
				1,
				1,
				1
			],
			"min":[
				-1,
				0.47742223739624023,
				-1.582024097442627
			],
			"type":"VEC3"
		},
		{
			"bufferView":1,
			"componentType":5126,
			"count":531,
			"type":"VEC3"
		},
		{
			"bufferView":2,
			"componentType":5126,
			"count":531,
			"type":"VEC2"
		},
		{
			"bufferView":3,
			"componentType":5123,
			"count":2136,
			"type":"SCALAR"
		},
		{
			"bufferView":4,
			"componentType":5126,
			"count":358,
			"max":[
				1,
				1.809074878692627,
				1
			],
			"min":[
				-1,
				-1,
				0.48305779695510864
			],
			"type":"VEC3"
		},
		{
			"bufferView":5,
			"componentType":5126,
			"count":358,
			"type":"VEC3"
		},
		{
			"bufferView":6,
			"componentType":5126,
			"count":358,
			"type":"VEC2"
		},
		{
			"bufferView":7,
			"componentType":5126,
			"count":358,
			"type":"VEC4"
		},
		{
			"bufferView":8,
			"componentType":5123,
			"count":1764,
			"type":"SCALAR"
		},
		{
			"bufferView":9,
			"componentType":5126,
			"count":88,
			"max":[
				0.21000003814697266,
				0.21000003814697266,
				0.21000003814697266
			],
			"min":[
				-0.21000003814697266,
				-0.02100846916437149,
				-7.017881393432617
			],
			"type":"VEC3"
		},
		{
			"bufferView":10,
			"componentType":5126,
			"count":88,
			"type":"VEC3"
		},
		{
			"bufferView":11,
			"componentType":5126,
			"count":88,
			"type":"VEC2"
		},
		{
			"bufferView":12,
			"componentType":5126,
			"count":88,
			"type":"VEC4"
		},
		{
			"bufferView":13,
			"componentType":5123,
			"count":132,
			"type":"SCALAR"
		},
		{
			"bufferView":14,
			"componentType":5126,
			"count":88,
			"max":[
				0.21000003814697266,
				0.21000003814697266,
				0.21000003814697266
			],
			"min":[
				-0.21000003814697266,
				-0.02100846916437149,
				-7.017881393432617
			],
			"type":"VEC3"
		},
		{
			"bufferView":15,
			"componentType":5126,
			"count":88,
			"type":"VEC3"
		},
		{
			"bufferView":16,
			"componentType":5126,
			"count":88,
			"type":"VEC2"
		},
		{
			"bufferView":17,
			"componentType":5126,
			"count":88,
			"type":"VEC4"
		},
		{
			"bufferView":18,
			"componentType":5126,
			"count":88,
			"max":[
				0.21000003814697266,
				0.21000003814697266,
				0.21000003814697266
			],
			"min":[
				-0.21000003814697266,
				-0.02100846916437149,
				-7.017881393432617
			],
			"type":"VEC3"
		},
		{
			"bufferView":19,
			"componentType":5126,
			"count":88,
			"type":"VEC3"
		},
		{
			"bufferView":20,
			"componentType":5126,
			"count":88,
			"type":"VEC2"
		},
		{
			"bufferView":21,
			"componentType":5126,
			"count":88,
			"type":"VEC4"
		},
		{
			"bufferView":22,
			"componentType":5126,
			"count":88,
			"max":[
				0.21000003814697266,
				0.21000003814697266,
				0.21000003814697266
			],
			"min":[
				-0.21000003814697266,
				-0.02100846916437149,
				-7.017881393432617
			],
			"type":"VEC3"
		},
		{
			"bufferView":23,
			"componentType":5126,
			"count":88,
			"type":"VEC3"
		},
		{
			"bufferView":24,
			"componentType":5126,
			"count":88,
			"type":"VEC2"
		},
		{
			"bufferView":25,
			"componentType":5126,
			"count":88,
			"type":"VEC4"
		},
		{
			"bufferView":26,
			"componentType":5126,
			"count":88,
			"max":[
				0.21000003814697266,
				0.21000003814697266,
				0.21000003814697266
			],
			"min":[
				-0.21000003814697266,
				-0.02100846916437149,
				-7.017881393432617
			],
			"type":"VEC3"
		},
		{
			"bufferView":27,
			"componentType":5126,
			"count":88,
			"type":"VEC3"
		},
		{
			"bufferView":28,
			"componentType":5126,
			"count":88,
			"type":"VEC2"
		},
		{
			"bufferView":29,
			"componentType":5126,
			"count":88,
			"type":"VEC4"
		},
		{
			"bufferView":30,
			"componentType":5126,
			"count":88,
			"max":[
				0.21000003814697266,
				0.21000003814697266,
				0.21000003814697266
			],
			"min":[
				-0.21000003814697266,
				-0.02100846916437149,
				-7.017881393432617
			],
			"type":"VEC3"
		},
		{
			"bufferView":31,
			"componentType":5126,
			"count":88,
			"type":"VEC3"
		},
		{
			"bufferView":32,
			"componentType":5126,
			"count":88,
			"type":"VEC2"
		},
		{
			"bufferView":33,
			"componentType":5126,
			"count":88,
			"type":"VEC4"
		},
		{
			"bufferView":34,
			"componentType":5126,
			"count":88,
			"max":[
				0.21000003814697266,
				0.21000003814697266,
				0.21000003814697266
			],
			"min":[
				-0.21000003814697266,
				-0.02100846916437149,
				-7.017881393432617
			],
			"type":"VEC3"
		},
		{
			"bufferView":35,
			"componentType":5126,
			"count":88,
			"type":"VEC3"
		},
		{
			"bufferView":36,
			"componentType":5126,
			"count":88,
			"type":"VEC2"
		},
		{
			"bufferView":37,
			"componentType":5126,
			"count":88,
			"type":"VEC4"
		},
		{
			"bufferView":38,
			"componentType":5126,
			"count":88,
			"max":[
				0.21000003814697266,
				0.21000003814697266,
				0.21000003814697266
			],
			"min":[
				-0.21000003814697266,
				-0.02100846916437149,
				-7.017881393432617
			],
			"type":"VEC3"
		},
		{
			"bufferView":39,
			"componentType":5126,
			"count":88,
			"type":"VEC3"
		},
		{
			"bufferView":40,
			"componentType":5126,
			"count":88,
			"type":"VEC2"
		},
		{
			"bufferView":41,
			"componentType":5126,
			"count":88,
			"type":"VEC4"
		}
	],
	"bufferViews":[
		{
			"buffer":0,
			"byteLength":6372,
			"byteOffset":0,
			"target":34962
		},
		{
			"buffer":0,
			"byteLength":6372,
			"byteOffset":6372,
			"target":34962
		},
		{
			"buffer":0,
			"byteLength":4248,
			"byteOffset":12744,
			"target":34962
		},
		{
			"buffer":0,
			"byteLength":4272,
			"byteOffset":16992,
			"target":34963
		},
		{
			"buffer":0,
			"byteLength":4296,
			"byteOffset":21264,
			"target":34962
		},
		{
			"buffer":0,
			"byteLength":4296,
			"byteOffset":25560,
			"target":34962
		},
		{
			"buffer":0,
			"byteLength":2864,
			"byteOffset":29856,
			"target":34962
		},
		{
			"buffer":0,
			"byteLength":5728,
			"byteOffset":32720,
			"target":34962
		},
		{
			"buffer":0,
			"byteLength":3528,
			"byteOffset":38448,
			"target":34963
		},
		{
			"buffer":0,
			"byteLength":1056,
			"byteOffset":41976,
			"target":34962
		},
		{
			"buffer":0,
			"byteLength":1056,
			"byteOffset":43032,
			"target":34962
		},
		{
			"buffer":0,
			"byteLength":704,
			"byteOffset":44088,
			"target":34962
		},
		{
			"buffer":0,
			"byteLength":1408,
			"byteOffset":44792,
			"target":34962
		},
		{
			"buffer":0,
			"byteLength":264,
			"byteOffset":46200,
			"target":34963
		},
		{
			"buffer":0,
			"byteLength":1056,
			"byteOffset":46464,
			"target":34962
		},
		{
			"buffer":0,
			"byteLength":1056,
			"byteOffset":47520,
			"target":34962
		},
		{
			"buffer":0,
			"byteLength":704,
			"byteOffset":48576,
			"target":34962
		},
		{
			"buffer":0,
			"byteLength":1408,
			"byteOffset":49280,
			"target":34962
		},
		{
			"buffer":0,
			"byteLength":1056,
			"byteOffset":50688,
			"target":34962
		},
		{
			"buffer":0,
			"byteLength":1056,
			"byteOffset":51744,
			"target":34962
		},
		{
			"buffer":0,
			"byteLength":704,
			"byteOffset":52800,
			"target":34962
		},
		{
			"buffer":0,
			"byteLength":1408,
			"byteOffset":53504,
			"target":34962
		},
		{
			"buffer":0,
			"byteLength":1056,
			"byteOffset":54912,
			"target":34962
		},
		{
			"buffer":0,
			"byteLength":1056,
			"byteOffset":55968,
			"target":34962
		},
		{
			"buffer":0,
			"byteLength":704,
			"byteOffset":57024,
			"target":34962
		},
		{
			"buffer":0,
			"byteLength":1408,
			"byteOffset":57728,
			"target":34962
		},
		{
			"buffer":0,
			"byteLength":1056,
			"byteOffset":59136,
			"target":34962
		},
		{
			"buffer":0,
			"byteLength":1056,
			"byteOffset":60192,
			"target":34962
		},
		{
			"buffer":0,
			"byteLength":704,
			"byteOffset":61248,
			"target":34962
		},
		{
			"buffer":0,
			"byteLength":1408,
			"byteOffset":61952,
			"target":34962
		},
		{
			"buffer":0,
			"byteLength":1056,
			"byteOffset":63360,
			"target":34962
		},
		{
			"buffer":0,
			"byteLength":1056,
			"byteOffset":64416,
			"target":34962
		},
		{
			"buffer":0,
			"byteLength":704,
			"byteOffset":65472,
			"target":34962
		},
		{
			"buffer":0,
			"byteLength":1408,
			"byteOffset":66176,
			"target":34962
		},
		{
			"buffer":0,
			"byteLength":1056,
			"byteOffset":67584,
			"target":34962
		},
		{
			"buffer":0,
			"byteLength":1056,
			"byteOffset":68640,
			"target":34962
		},
		{
			"buffer":0,
			"byteLength":704,
			"byteOffset":69696,
			"target":34962
		},
		{
			"buffer":0,
			"byteLength":1408,
			"byteOffset":70400,
			"target":34962
		},
		{
			"buffer":0,
			"byteLength":1056,
			"byteOffset":71808,
			"target":34962
		},
		{
			"buffer":0,
			"byteLength":1056,
			"byteOffset":72864,
			"target":34962
		},
		{
			"buffer":0,
			"byteLength":704,
			"byteOffset":73920,
			"target":34962
		},
		{
			"buffer":0,
			"byteLength":1408,
			"byteOffset":74624,
			"target":34962
		}
	],
	"buffers":[
		{
			"byteLength":76032,
			"uri":"loungeChair-5568441db3a1edbf527f97d3b0bdfd4a.bin"
		}
	]
}
