{
	"asset":{
		"generator":"Khronos glTF Blender I/O v4.3.47",
		"version":"2.0"
	},
	"extensionsUsed":[
		"KHR_lights_punctual"
	],
	"extensionsRequired":[
		"KHR_lights_punctual"
	],
	"extensions":{
		"KHR_lights_punctual":{
			"lights":[
				{
					"color":[
						1,
						1,
						1
					],
					"intensity":1500.0989176846756,
					"type":"point",
					"name":"Point"
				},
				{
					"color":[
						1,
						1,
						1
					],
					"intensity":2136.0102846881487,
					"type":"point",
					"name":"Point.001"
				},
				{
					"color":[
						1,
						1,
						1
					],
					"intensity":54351.41306588226,
					"type":"point",
					"name":"Light"
				}
			]
		}
	},
	"scene":0,
	"scenes":[
		{
			"name":"Scene",
			"nodes":[
				0,
				1,
				2,
				3,
				4,
				5,
				6
			]
		}
	],
	"nodes":[
		{
			"extensions":{
				"KHR_lights_punctual":{
					"light":0
				}
			},
			"name":"Point",
			"rotation":[
				-0.7071068286895752,
				0,
				0,
				0.7071068286895752
			],
			"translation":[
				-0.9941849708557129,
				1.0488585233688354,
				2.1760385036468506
			]
		},
		{
			"extensions":{
				"KHR_lights_punctual":{
					"light":1
				}
			},
			"name":"Point.001",
			"rotation":[
				-0.7071068286895752,
				0,
				0,
				0.7071068286895752
			],
			"translation":[
				-1.533241629600525,
				1.9044151306152344,
				-1.4249069690704346
			]
		},
		{
			"extensions":{
				"KHR_lights_punctual":{
					"light":2
				}
			},
			"name":"Light",
			"rotation":[
				-0.28416627645492554,
				0.7269423007965088,
				0.34203392267227173,
				0.5232754945755005
			],
			"translation":[
				4.076245307922363,
				5.903861999511719,
				-1.0054539442062378
			]
		},
		{
			"camera":0,
			"name":"Camera",
			"rotation":[
				-0.14455020427703857,
				0.39323824644088745,
				0.06275110691785812,
				0.9058318138122559
			],
			"translation":[
				3.452251672744751,
				2.1193153858184814,
				3.3309097290039062
			]
		},
		{
			"mesh":0,
			"name":"radiator",
			"scale":[
				0.09906098246574402,
				0.6843368411064148,
				1.1143829822540283
			],
			"translation":[
				0,
				0.7086905241012573,
				0
			]
		},
		{
			"mesh":1,
			"name":"pipe.001",
			"rotation":[
				0.7071068286895752,
				0,
				0,
				0.7071068286895752
			],
			"scale":[
				1.5193084478378296,
				1.8010846376419067,
				1.5193084478378296
			],
			"translation":[
				0,
				1.2330360412597656,
				0
			]
		},
		{
			"mesh":2,
			"name":"pipe.002",
			"rotation":[
				0.7071068286895752,
				0,
				0,
				0.7071068286895752
			],
			"scale":[
				1.5193084478378296,
				1.8010846376419067,
				1.5193084478378296
			],
			"translation":[
				0,
				1.2330360412597656,
				0
			]
		}
	],
	"cameras":[
		{
			"name":"Camera",
			"perspective":{
				"aspectRatio":1.7777777777777777,
				"yfov":0.39959652046304894,
				"zfar":100,
				"znear":0.10000000149011612
			},
			"type":"perspective"
		}
	],
	"materials":[
		{
			"doubleSided":true,
			"name":"Material.001",
			"pbrMetallicRoughness":{
				"metallicFactor":0.5,
				"roughnessFactor":0.4556961953639984
			}
		},
		{
			"doubleSided":true,
			"name":"Material.002",
			"pbrMetallicRoughness":{
				"baseColorFactor":[
					0.1701832115650177,
					0.1701832115650177,
					0.1701832115650177,
					1
				],
				"metallicFactor":0.5,
				"roughnessFactor":0.6499999761581421
			}
		},
		{
			"doubleSided":true,
			"name":"Material",
			"pbrMetallicRoughness":{
				"baseColorFactor":[
					0.785190224647522,
					0.785190224647522,
					0.785190224647522,
					1
				],
				"metallicFactor":0
			}
		}
	],
	"meshes":[
		{
			"name":"Cube.001",
			"primitives":[
				{
					"attributes":{
						"POSITION":0,
						"NORMAL":1,
						"TEXCOORD_0":2
					},
					"indices":3,
					"material":0
				}
			]
		},
		{
			"name":"Cylinder.001",
			"primitives":[
				{
					"attributes":{
						"POSITION":4,
						"NORMAL":5,
						"TEXCOORD_0":6
					},
					"indices":7,
					"material":1
				}
			]
		},
		{
			"name":"Cylinder.003",
			"primitives":[
				{
					"attributes":{
						"POSITION":8,
						"NORMAL":9,
						"TEXCOORD_0":10
					},
					"indices":11,
					"material":2
				}
			]
		}
	],
	"accessors":[
		{
			"bufferView":0,
			"componentType":5126,
			"count":33309,
			"max":[
				1,
				1,
				1
			],
			"min":[
				-1,
				-1,
				-1
			],
			"type":"VEC3"
		},
		{
			"bufferView":1,
			"componentType":5126,
			"count":33309,
			"type":"VEC3"
		},
		{
			"bufferView":2,
			"componentType":5126,
			"count":33309,
			"type":"VEC2"
		},
		{
			"bufferView":3,
			"componentType":5123,
			"count":52914,
			"type":"SCALAR"
		},
		{
			"bufferView":4,
			"componentType":5126,
			"count":480,
			"max":[
				0.023110955953598022,
				0.662386953830719,
				0.023110955953598022
			],
			"min":[
				-0.023110955953598022,
				-0.6449999809265137,
				-0.023110955953598022
			],
			"type":"VEC3"
		},
		{
			"bufferView":5,
			"componentType":5126,
			"count":480,
			"type":"VEC3"
		},
		{
			"bufferView":6,
			"componentType":5126,
			"count":480,
			"type":"VEC2"
		},
		{
			"bufferView":7,
			"componentType":5123,
			"count":858,
			"type":"SCALAR"
		},
		{
			"bufferView":8,
			"componentType":5126,
			"count":672,
			"max":[
				0.037446316331624985,
				0.7418306469917297,
				0.037446312606334686
			],
			"min":[
				-0.03744630888104439,
				0.662386953830719,
				-0.037446312606334686
			],
			"type":"VEC3"
		},
		{
			"bufferView":9,
			"componentType":5126,
			"count":672,
			"type":"VEC3"
		},
		{
			"bufferView":10,
			"componentType":5126,
			"count":672,
			"type":"VEC2"
		},
		{
			"bufferView":11,
			"componentType":5123,
			"count":1050,
			"type":"SCALAR"
		}
	],
	"bufferViews":[
		{
			"buffer":0,
			"byteLength":399708,
			"byteOffset":0,
			"target":34962
		},
		{
			"buffer":0,
			"byteLength":399708,
			"byteOffset":399708,
			"target":34962
		},
		{
			"buffer":0,
			"byteLength":266472,
			"byteOffset":799416,
			"target":34962
		},
		{
			"buffer":0,
			"byteLength":105828,
			"byteOffset":1065888,
			"target":34963
		},
		{
			"buffer":0,
			"byteLength":5760,
			"byteOffset":1171716,
			"target":34962
		},
		{
			"buffer":0,
			"byteLength":5760,
			"byteOffset":1177476,
			"target":34962
		},
		{
			"buffer":0,
			"byteLength":3840,
			"byteOffset":1183236,
			"target":34962
		},
		{
			"buffer":0,
			"byteLength":1716,
			"byteOffset":1187076,
			"target":34963
		},
		{
			"buffer":0,
			"byteLength":8064,
			"byteOffset":1188792,
			"target":34962
		},
		{
			"buffer":0,
			"byteLength":8064,
			"byteOffset":1196856,
			"target":34962
		},
		{
			"buffer":0,
			"byteLength":5376,
			"byteOffset":1204920,
			"target":34962
		},
		{
			"buffer":0,
			"byteLength":2100,
			"byteOffset":1210296,
			"target":34963
		}
	],
	"buffers":[
		{
			"byteLength":1212396,
			"uri":"radiator-5c6773bcf032762bdc27fd41deff4946.bin"
		}
	]
}
