{
	"asset":{
		"generator":"Khronos glTF Blender I/O v4.3.47",
		"version":"2.0"
	},
	"extensionsUsed":[
		"KHR_lights_punctual"
	],
	"extensionsRequired":[
		"KHR_lights_punctual"
	],
	"extensions":{
		"KHR_lights_punctual":{
			"lights":[
				{
					"color":[
						1,
						1,
						1
					],
					"intensity":683000,
					"type":"directional",
					"name":"Light"
				}
			]
		}
	},
	"scene":0,
	"scenes":[
		{
			"name":"Scene",
			"nodes":[
				0,
				1,
				2,
				3
			]
		}
	],
	"nodes":[
		{
			"extensions":{
				"KHR_lights_punctual":{
					"light":0
				}
			},
			"name":"Light",
			"rotation":[
				-0.28416627645492554,
				0.7269423007965088,
				0.34203392267227173,
				0.5232754945755005
			],
			"translation":[
				5.212774276733398,
				5.903861999511719,
				-1.0054539442062378
			]
		},
		{
			"camera":0,
			"name":"Camera",
			"rotation":[
				-0.20997299253940582,
				0.3857799470424652,
				0.09062844514846802,
				0.8937962055206299
			],
			"translation":[
				7.358891487121582,
				4.958309173583984,
				6.925790786743164
			]
		},
		{
			"mesh":0,
			"name":"Spiral",
			"scale":[
				0.461893767118454,
				1,
				0.49950695037841797
			],
			"translation":[
				0.008380275219678879,
				0,
				-0.02275751158595085
			]
		},
		{
			"mesh":1,
			"name":"Plane",
			"scale":[
				2.070279121398926,
				2.070279121398926,
				2.070279121398926
			],
			"translation":[
				0,
				-3.722684383392334,
				0
			]
		}
	],
	"cameras":[
		{
			"name":"Camera",
			"perspective":{
				"aspectRatio":1.7777777777777777,
				"yfov":0.2399140076441838,
				"zfar":100,
				"znear":0.10000000149011612
			},
			"type":"perspective"
		}
	],
	"materials":[
		{
			"doubleSided":true,
			"name":"Material.001",
			"pbrMetallicRoughness":{
				"baseColorFactor":[
					0.644478976726532,
					0.6938711404800415,
					0.708375871181488,
					1
				]
			}
		}
	],
	"meshes":[
		{
			"name":"Spiral",
			"primitives":[
				{
					"attributes":{
						"POSITION":0,
						"NORMAL":1,
						"TEXCOORD_0":2,
						"TANGENT":3
					},
					"indices":4,
					"material":0
				}
			]
		},
		{
			"name":"Plane.003",
			"primitives":[
				{
					"attributes":{
						"POSITION":5,
						"NORMAL":6,
						"TEXCOORD_0":7,
						"TANGENT":8
					},
					"indices":9
				}
			]
		}
	],
	"accessors":[
		{
			"bufferView":0,
			"componentType":5126,
			"count":426,
			"max":[
				1.1210641860961914,
				1.0000001192092896,
				0.9976585507392883
			],
			"min":[
				-1.063378095626831,
				-1.0000001192092896,
				-1.0234681367874146
			],
			"type":"VEC3"
		},
		{
			"bufferView":1,
			"componentType":5126,
			"count":426,
			"type":"VEC3"
		},
		{
			"bufferView":2,
			"componentType":5126,
			"count":426,
			"type":"VEC2"
		},
		{
			"bufferView":3,
			"componentType":5126,
			"count":426,
			"type":"VEC4"
		},
		{
			"bufferView":4,
			"componentType":5123,
			"count":1692,
			"type":"SCALAR"
		},
		{
			"bufferView":5,
			"componentType":5126,
			"count":4,
			"max":[
				1,
				0,
				1
			],
			"min":[
				-1,
				0,
				-1
			],
			"type":"VEC3"
		},
		{
			"bufferView":6,
			"componentType":5126,
			"count":4,
			"type":"VEC3"
		},
		{
			"bufferView":7,
			"componentType":5126,
			"count":4,
			"type":"VEC2"
		},
		{
			"bufferView":8,
			"componentType":5126,
			"count":4,
			"type":"VEC4"
		},
		{
			"bufferView":9,
			"componentType":5123,
			"count":6,
			"type":"SCALAR"
		}
	],
	"bufferViews":[
		{
			"buffer":0,
			"byteLength":5112,
			"byteOffset":0,
			"target":34962
		},
		{
			"buffer":0,
			"byteLength":5112,
			"byteOffset":5112,
			"target":34962
		},
		{
			"buffer":0,
			"byteLength":3408,
			"byteOffset":10224,
			"target":34962
		},
		{
			"buffer":0,
			"byteLength":6816,
			"byteOffset":13632,
			"target":34962
		},
		{
			"buffer":0,
			"byteLength":3384,
			"byteOffset":20448,
			"target":34963
		},
		{
			"buffer":0,
			"byteLength":48,
			"byteOffset":23832,
			"target":34962
		},
		{
			"buffer":0,
			"byteLength":48,
			"byteOffset":23880,
			"target":34962
		},
		{
			"buffer":0,
			"byteLength":32,
			"byteOffset":23928,
			"target":34962
		},
		{
			"buffer":0,
			"byteLength":64,
			"byteOffset":23960,
			"target":34962
		},
		{
			"buffer":0,
			"byteLength":12,
			"byteOffset":24024,
			"target":34963
		}
	],
	"buffers":[
		{
			"byteLength":24036,
			"uri":"radiatorFoil-db5d32d275032880476320718dddf05c.bin"
		}
	]
}
