{
	"asset":{
		"generator":"Khronos glTF Blender I/O v4.3.47",
		"version":"2.0"
	},
	"extensionsUsed":[
		"KHR_lights_punctual",
		"KHR_materials_specular",
		"KHR_materials_ior"
	],
	"extensionsRequired":[
		"KHR_lights_punctual"
	],
	"extensions":{
		"KHR_lights_punctual":{
			"lights":[
				{
					"color":[
						1,
						1,
						1
					],
					"intensity":54351.41306588226,
					"type":"point",
					"name":"Light"
				}
			]
		}
	},
	"scene":0,
	"scenes":[
		{
			"name":"Scene",
			"nodes":[
				0,
				1,
				2,
				3,
				4,
				5,
				6,
				7,
				8,
				9,
				10
			]
		}
	],
	"nodes":[
		{
			"extensions":{
				"KHR_lights_punctual":{
					"light":0
				}
			},
			"name":"Light",
			"rotation":[
				-0.28416627645492554,
				0.7269423007965088,
				0.34203392267227173,
				0.5232754945755005
			],
			"translation":[
				2.507634401321411,
				3.406632423400879,
				5.140141487121582
			]
		},
		{
			"camera":0,
			"name":"Camera",
			"rotation":[
				-0.06527964770793915,
				0.4783841669559479,
				0.03569001704454422,
				0.8749933838844299
			],
			"translation":[
				1.9774399995803833,
				0.3668760657310486,
				1.3290989398956299
			]
		},
		{
			"name":"Empty",
			"rotation":[
				0.7070747017860413,
				0.006744327023625374,
				0.0067443279549479485,
				0.7070745229721069
			],
			"scale":[
				0.16402243077754974,
				0.16402243077754974,
				0.16402243077754974
			],
			"translation":[
				0,
				0,
				-0.6754252314567566
			]
		},
		{
			"mesh":0,
			"name":"Thermostat",
			"rotation":[
				0,
				0,
				0.009637747891247272,
				0.99995356798172
			],
			"scale":[
				0.36819398403167725,
				0.36819398403167725,
				0.07433924823999405
			]
		},
		{
			"mesh":1,
			"name":"thermoLight",
			"rotation":[
				0,
				0,
				0.009637747891247272,
				0.99995356798172
			],
			"scale":[
				0.36819398403167725,
				0.36819398403167725,
				0.07433924823999405
			]
		},
		{
			"mesh":2,
			"name":"screen",
			"rotation":[
				0,
				0,
				0.009637747891247272,
				0.99995356798172
			],
			"scale":[
				0.36819398403167725,
				0.36819398403167725,
				0.07433924823999405
			]
		},
		{
			"mesh":3,
			"name":"Text",
			"rotation":[
				0.7071068286895752,
				0,
				0,
				0.7071068286895752
			],
			"scale":[
				0.017956972122192383,
				0.017956972122192383,
				0.017956972122192383
			],
			"translation":[
				-0.1378031075000763,
				-0.1884300708770752,
				0.07778990268707275
			]
		},
		{
			"mesh":4,
			"name":"Text.001",
			"rotation":[
				0.7071068286895752,
				0,
				0,
				0.7071068286895752
			],
			"scale":[
				0.017956972122192383,
				0.017956972122192383,
				0.017956972122192383
			],
			"translation":[
				-0.0013547837734222412,
				-0.1917419284582138,
				0.07778990268707275
			]
		},
		{
			"mesh":5,
			"name":"Text.002",
			"rotation":[
				0.7071068286895752,
				0,
				0,
				0.7071068286895752
			],
			"scale":[
				0.017956972122192383,
				0.017956972122192383,
				0.017956972122192383
			],
			"translation":[
				0.14904062449932098,
				-0.1884300708770752,
				0.07778990268707275
			]
		},
		{
			"mesh":6,
			"name":"Circle",
			"rotation":[
				0.7071068286895752,
				0,
				0,
				0.7071068286895752
			],
			"scale":[
				0.33510199189186096,
				0.33510199189186096,
				0.33510199189186096
			],
			"translation":[
				-0.11315499991178513,
				-0.008671903982758522,
				0.14561410248279572
			]
		},
		{
			"mesh":7,
			"name":"Circle.001",
			"rotation":[
				0,
				0.7071068286895752,
				0.7071068286895752,
				1.1520233300643667e-07
			],
			"scale":[
				0.33510199189186096,
				0.33510199189186096,
				0.33510199189186096
			],
			"translation":[
				0.10065831989049911,
				0.007224995642900467,
				0.14561410248279572
			]
		}
	],
	"cameras":[
		{
			"name":"Camera",
			"perspective":{
				"aspectRatio":1.7777777777777777,
				"yfov":0.39959652046304894,
				"zfar":100,
				"znear":0.10000000149011612
			},
			"type":"perspective"
		}
	],
	"materials":[
		{
			"doubleSided":true,
			"extensions":{
				"KHR_materials_specular":{
					"specularFactor":0
				},
				"KHR_materials_ior":{
					"ior":1.4500000476837158
				}
			},
			"name":"Material",
			"pbrMetallicRoughness":{
				"baseColorFactor":[
					0.4592582881450653,
					0.4592582881450653,
					0.4592582881450653,
					1
				],
				"metallicFactor":0
			}
		},
		{
			"doubleSided":true,
			"name":"Material.001",
			"pbrMetallicRoughness":{
				"baseColorFactor":[
					0.800000011920929,
					0.800000011920929,
					0.800000011920929,
					1
				],
				"metallicFactor":0,
				"roughnessFactor":0.20000000298023224
			}
		},
		{
			"doubleSided":true,
			"extensions":{
				"KHR_materials_specular":{
					"specularFactor":0
				},
				"KHR_materials_ior":{
					"ior":1.4500000476837158
				}
			},
			"name":"Material.002",
			"pbrMetallicRoughness":{
				"baseColorFactor":[
					0.18232697248458862,
					0.25995752215385437,
					0.13915881514549255,
					1
				],
				"metallicFactor":0
			}
		},
		{
			"doubleSided":true,
			"extensions":{
				"KHR_materials_specular":{
					"specularFactor":0
				}
			},
			"name":"Material.003",
			"pbrMetallicRoughness":{
				"baseColorFactor":[
					0,
					0,
					0,
					1
				],
				"metallicFactor":0
			}
		},
		{
			"doubleSided":true,
			"extensions":{
				"KHR_materials_specular":{
					"specularFactor":0
				}
			},
			"name":"Material.004",
			"pbrMetallicRoughness":{
				"baseColorFactor":[
					0.8000074625015259,
					0.0840420052409172,
					0.07237686961889267,
					1
				],
				"metallicFactor":0
			}
		},
		{
			"doubleSided":true,
			"extensions":{
				"KHR_materials_specular":{
					"specularFactor":0
				}
			},
			"name":"Material.005",
			"pbrMetallicRoughness":{
				"baseColorFactor":[
					0.21911856532096863,
					0.20381540060043335,
					0.8000156879425049,
					1
				],
				"metallicFactor":0
			}
		}
	],
	"meshes":[
		{
			"name":"Cube.001",
			"primitives":[
				{
					"attributes":{
						"POSITION":0,
						"NORMAL":1,
						"TEXCOORD_0":2
					},
					"indices":3,
					"material":0
				}
			]
		},
		{
			"name":"Cube.002",
			"primitives":[
				{
					"attributes":{
						"POSITION":4,
						"NORMAL":5,
						"TEXCOORD_0":6
					},
					"indices":7,
					"material":1
				}
			]
		},
		{
			"name":"Cube.003",
			"primitives":[
				{
					"attributes":{
						"POSITION":8,
						"NORMAL":9,
						"TEXCOORD_0":10,
						"TANGENT":11
					},
					"indices":12,
					"material":2
				}
			]
		},
		{
			"name":"text",
			"primitives":[
				{
					"attributes":{
						"POSITION":13,
						"NORMAL":14,
						"TEXCOORD_0":15,
						"TANGENT":16
					},
					"indices":17,
					"material":3
				}
			]
		},
		{
			"name":"text.001",
			"primitives":[
				{
					"attributes":{
						"POSITION":18,
						"NORMAL":19,
						"TEXCOORD_0":20,
						"TANGENT":21
					},
					"indices":22,
					"material":3
				}
			]
		},
		{
			"name":"text.002",
			"primitives":[
				{
					"attributes":{
						"POSITION":23,
						"NORMAL":24,
						"TEXCOORD_0":25,
						"TANGENT":26
					},
					"indices":27,
					"material":3
				}
			]
		},
		{
			"name":"Circle.001",
			"primitives":[
				{
					"attributes":{
						"POSITION":28,
						"NORMAL":29,
						"TEXCOORD_0":30,
						"TANGENT":31
					},
					"indices":32,
					"material":4
				}
			]
		},
		{
			"name":"Circle.002",
			"primitives":[
				{
					"attributes":{
						"POSITION":33,
						"NORMAL":34,
						"TEXCOORD_0":35,
						"TANGENT":36
					},
					"indices":32,
					"material":5
				}
			]
		}
	],
	"accessors":[
		{
			"bufferView":0,
			"componentType":5126,
			"count":15048,
			"max":[
				1.0076959133148193,
				1.0880775451660156,
				1.3448596000671387
			],
			"min":[
				-0.9846788644790649,
				-1.0181336402893066,
				-1
			],
			"type":"VEC3"
		},
		{
			"bufferView":1,
			"componentType":5126,
			"count":15048,
			"type":"VEC3"
		},
		{
			"bufferView":2,
			"componentType":5126,
			"count":15048,
			"type":"VEC2"
		},
		{
			"bufferView":3,
			"componentType":5123,
			"count":23217,
			"type":"SCALAR"
		},
		{
			"bufferView":4,
			"componentType":5126,
			"count":1560,
			"max":[
				0.7784973978996277,
				-0.6870191693305969,
				1.1257754564285278
			],
			"min":[
				0.607783854007721,
				-0.8576516509056091,
				0.9999998807907104
			],
			"type":"VEC3"
		},
		{
			"bufferView":5,
			"componentType":5126,
			"count":1560,
			"type":"VEC3"
		},
		{
			"bufferView":6,
			"componentType":5126,
			"count":1560,
			"type":"VEC2"
		},
		{
			"bufferView":7,
			"componentType":5123,
			"count":2811,
			"type":"SCALAR"
		},
		{
			"bufferView":8,
			"componentType":5126,
			"count":22,
			"max":[
				0.6049196720123291,
				0.8702120780944824,
				1.0524381399154663
			],
			"min":[
				-0.5664439797401428,
				0.2846687436103821,
				1.0524381399154663
			],
			"type":"VEC3"
		},
		{
			"bufferView":9,
			"componentType":5126,
			"count":22,
			"type":"VEC3"
		},
		{
			"bufferView":10,
			"componentType":5126,
			"count":22,
			"type":"VEC2"
		},
		{
			"bufferView":11,
			"componentType":5126,
			"count":22,
			"type":"VEC4"
		},
		{
			"bufferView":12,
			"componentType":5123,
			"count":36,
			"type":"SCALAR"
		},
		{
			"bufferView":13,
			"componentType":5126,
			"count":1824,
			"max":[
				1.3580000400543213,
				0,
				0.30900001525878906
			],
			"min":[
				-1.340999960899353,
				-0.05000000074505806,
				-0.4280000329017639
			],
			"type":"VEC3"
		},
		{
			"bufferView":14,
			"componentType":5126,
			"count":1824,
			"type":"VEC3"
		},
		{
			"bufferView":15,
			"componentType":5126,
			"count":1824,
			"type":"VEC2"
		},
		{
			"bufferView":16,
			"componentType":5126,
			"count":1824,
			"type":"VEC4"
		},
		{
			"bufferView":17,
			"componentType":5123,
			"count":3612,
			"type":"SCALAR"
		},
		{
			"bufferView":18,
			"componentType":5126,
			"count":1626,
			"max":[
				1.7395000457763672,
				0,
				0.30900001525878906
			],
			"min":[
				-1.6694999933242798,
				-0.05000000074505806,
				-0.39100003242492676
			],
			"type":"VEC3"
		},
		{
			"bufferView":19,
			"componentType":5126,
			"count":1626,
			"type":"VEC3"
		},
		{
			"bufferView":20,
			"componentType":5126,
			"count":1626,
			"type":"VEC2"
		},
		{
			"bufferView":21,
			"componentType":5126,
			"count":1626,
			"type":"VEC4"
		},
		{
			"bufferView":22,
			"componentType":5123,
			"count":3228,
			"type":"SCALAR"
		},
		{
			"bufferView":23,
			"componentType":5126,
			"count":186,
			"max":[
				0.6054999232292175,
				0,
				0.30000001192092896
			],
			"min":[
				-1.160500168800354,
				-0.05000000074505806,
				-0.38600003719329834
			],
			"type":"VEC3"
		},
		{
			"bufferView":24,
			"componentType":5126,
			"count":186,
			"type":"VEC3"
		},
		{
			"bufferView":25,
			"componentType":5126,
			"count":186,
			"type":"VEC2"
		},
		{
			"bufferView":26,
			"componentType":5126,
			"count":186,
			"type":"VEC4"
		},
		{
			"bufferView":27,
			"componentType":5123,
			"count":348,
			"type":"SCALAR"
		},
		{
			"bufferView":28,
			"componentType":5126,
			"count":3,
			"max":[
				0.08660253882408142,
				-0.1345202624797821,
				0.05000000819563866
			],
			"min":[
				-0.08660253882408142,
				-0.1345202624797821,
				-0.09999999403953552
			],
			"type":"VEC3"
		},
		{
			"bufferView":29,
			"componentType":5126,
			"count":3,
			"type":"VEC3"
		},
		{
			"bufferView":30,
			"componentType":5126,
			"count":3,
			"type":"VEC2"
		},
		{
			"bufferView":31,
			"componentType":5126,
			"count":3,
			"type":"VEC4"
		},
		{
			"bufferView":32,
			"componentType":5123,
			"count":3,
			"type":"SCALAR"
		},
		{
			"bufferView":33,
			"componentType":5126,
			"count":3,
			"max":[
				0.08660253882408142,
				-0.1345202624797821,
				0.05000000819563866
			],
			"min":[
				-0.08660253882408142,
				-0.1345202624797821,
				-0.09999999403953552
			],
			"type":"VEC3"
		},
		{
			"bufferView":34,
			"componentType":5126,
			"count":3,
			"type":"VEC3"
		},
		{
			"bufferView":35,
			"componentType":5126,
			"count":3,
			"type":"VEC2"
		},
		{
			"bufferView":36,
			"componentType":5126,
			"count":3,
			"type":"VEC4"
		}
	],
	"bufferViews":[
		{
			"buffer":0,
			"byteLength":180576,
			"byteOffset":0,
			"target":34962
		},
		{
			"buffer":0,
			"byteLength":180576,
			"byteOffset":180576,
			"target":34962
		},
		{
			"buffer":0,
			"byteLength":120384,
			"byteOffset":361152,
			"target":34962
		},
		{
			"buffer":0,
			"byteLength":46434,
			"byteOffset":481536,
			"target":34963
		},
		{
			"buffer":0,
			"byteLength":18720,
			"byteOffset":527972,
			"target":34962
		},
		{
			"buffer":0,
			"byteLength":18720,
			"byteOffset":546692,
			"target":34962
		},
		{
			"buffer":0,
			"byteLength":12480,
			"byteOffset":565412,
			"target":34962
		},
		{
			"buffer":0,
			"byteLength":5622,
			"byteOffset":577892,
			"target":34963
		},
		{
			"buffer":0,
			"byteLength":264,
			"byteOffset":583516,
			"target":34962
		},
		{
			"buffer":0,
			"byteLength":264,
			"byteOffset":583780,
			"target":34962
		},
		{
			"buffer":0,
			"byteLength":176,
			"byteOffset":584044,
			"target":34962
		},
		{
			"buffer":0,
			"byteLength":352,
			"byteOffset":584220,
			"target":34962
		},
		{
			"buffer":0,
			"byteLength":72,
			"byteOffset":584572,
			"target":34963
		},
		{
			"buffer":0,
			"byteLength":21888,
			"byteOffset":584644,
			"target":34962
		},
		{
			"buffer":0,
			"byteLength":21888,
			"byteOffset":606532,
			"target":34962
		},
		{
			"buffer":0,
			"byteLength":14592,
			"byteOffset":628420,
			"target":34962
		},
		{
			"buffer":0,
			"byteLength":29184,
			"byteOffset":643012,
			"target":34962
		},
		{
			"buffer":0,
			"byteLength":7224,
			"byteOffset":672196,
			"target":34963
		},
		{
			"buffer":0,
			"byteLength":19512,
			"byteOffset":679420,
			"target":34962
		},
		{
			"buffer":0,
			"byteLength":19512,
			"byteOffset":698932,
			"target":34962
		},
		{
			"buffer":0,
			"byteLength":13008,
			"byteOffset":718444,
			"target":34962
		},
		{
			"buffer":0,
			"byteLength":26016,
			"byteOffset":731452,
			"target":34962
		},
		{
			"buffer":0,
			"byteLength":6456,
			"byteOffset":757468,
			"target":34963
		},
		{
			"buffer":0,
			"byteLength":2232,
			"byteOffset":763924,
			"target":34962
		},
		{
			"buffer":0,
			"byteLength":2232,
			"byteOffset":766156,
			"target":34962
		},
		{
			"buffer":0,
			"byteLength":1488,
			"byteOffset":768388,
			"target":34962
		},
		{
			"buffer":0,
			"byteLength":2976,
			"byteOffset":769876,
			"target":34962
		},
		{
			"buffer":0,
			"byteLength":696,
			"byteOffset":772852,
			"target":34963
		},
		{
			"buffer":0,
			"byteLength":36,
			"byteOffset":773548,
			"target":34962
		},
		{
			"buffer":0,
			"byteLength":36,
			"byteOffset":773584,
			"target":34962
		},
		{
			"buffer":0,
			"byteLength":24,
			"byteOffset":773620,
			"target":34962
		},
		{
			"buffer":0,
			"byteLength":48,
			"byteOffset":773644,
			"target":34962
		},
		{
			"buffer":0,
			"byteLength":6,
			"byteOffset":773692,
			"target":34963
		},
		{
			"buffer":0,
			"byteLength":36,
			"byteOffset":773700,
			"target":34962
		},
		{
			"buffer":0,
			"byteLength":36,
			"byteOffset":773736,
			"target":34962
		},
		{
			"buffer":0,
			"byteLength":24,
			"byteOffset":773772,
			"target":34962
		},
		{
			"buffer":0,
			"byteLength":48,
			"byteOffset":773796,
			"target":34962
		}
	],
	"buffers":[
		{
			"byteLength":773844,
			"uri":"thermostat-dab1755d7e258571f1a8d7bea767342f.bin"
		}
	]
}
