{
	"asset":{
		"generator":"Khronos glTF Blender I/O v4.3.47",
		"version":"2.0"
	},
	"extensionsUsed":[
		"KHR_materials_specular",
		"KHR_materials_ior",
		"KHR_lights_punctual"
	],
	"extensionsRequired":[
		"KHR_lights_punctual"
	],
	"extensions":{
		"KHR_lights_punctual":{
			"lights":[
				{
					"color":[
						1,
						1,
						1
					],
					"intensity":54351.41306588226,
					"type":"point",
					"name":"Light"
				}
			]
		}
	},
	"scene":0,
	"scenes":[
		{
			"name":"Scene",
			"nodes":[
				0,
				1,
				2,
				3,
				4,
				5,
				6,
				7,
				8,
				9,
				10,
				11,
				12,
				13,
				14,
				15,
				16,
				17,
				18,
				19,
				20,
				21,
				22,
				23,
				24,
				25,
				26,
				27,
				28,
				29,
				30
			]
		}
	],
	"nodes":[
		{
			"mesh":0,
			"name":"Cube",
			"translation":[
				0.012158782221376896,
				0,
				0
			]
		},
		{
			"extensions":{
				"KHR_lights_punctual":{
					"light":0
				}
			},
			"name":"Light",
			"rotation":[
				-0.28416627645492554,
				0.7269423007965088,
				0.34203392267227173,
				0.5232754945755005
			],
			"translation":[
				4.076245307922363,
				0.4079117774963379,
				3.570463180541992
			]
		},
		{
			"camera":0,
			"name":"Camera",
			"translation":[
				0.1536087989807129,
				0.11692731082439423,
				13.112970352172852
			]
		},
		{
			"name":"Empty",
			"rotation":[
				0.70710688829422,
				0,
				0,
				0.7071066498756409
			]
		},
		{
			"mesh":1,
			"name":"Circle",
			"rotation":[
				0.7071068286895752,
				0,
				0,
				0.7071068286895752
			],
			"scale":[
				0.102592833340168,
				0.102592833340168,
				0.102592833340168
			],
			"translation":[
				-0.31783223152160645,
				1.634140133857727,
				0.12149474024772644
			]
		},
		{
			"mesh":2,
			"name":"Circle.001",
			"rotation":[
				0.7071068286895752,
				0,
				0,
				0.7071068286895752
			],
			"scale":[
				0.102592833340168,
				0.102592833340168,
				0.102592833340168
			],
			"translation":[
				0.3235001564025879,
				1.634140133857727,
				0.12149474024772644
			]
		},
		{
			"mesh":3,
			"name":"Circle.002",
			"rotation":[
				0.7071068286895752,
				0,
				0,
				0.7071068286895752
			],
			"scale":[
				0.09861389547586441,
				0.09861389547586441,
				0.09861389547586441
			],
			"translation":[
				-0.33907100558280945,
				1.3423293828964233,
				0.16619743406772614
			]
		},
		{
			"mesh":3,
			"name":"Circle.003",
			"rotation":[
				0.7071068286895752,
				0,
				0,
				0.7071068286895752
			],
			"scale":[
				0.09861389547586441,
				0.09861389547586441,
				0.09861389547586441
			],
			"translation":[
				-0.11049500107765198,
				1.3423293828964233,
				0.16619743406772614
			]
		},
		{
			"mesh":3,
			"name":"Circle.004",
			"rotation":[
				0.7071068286895752,
				0,
				0,
				0.7071068286895752
			],
			"scale":[
				0.09861389547586441,
				0.09861389547586441,
				0.09861389547586441
			],
			"translation":[
				0.12829099595546722,
				1.3423293828964233,
				0.16619743406772614
			]
		},
		{
			"mesh":3,
			"name":"Circle.005",
			"rotation":[
				0.7071068286895752,
				0,
				0,
				0.7071068286895752
			],
			"scale":[
				0.09861389547586441,
				0.09861389547586441,
				0.09861389547586441
			],
			"translation":[
				0.35576701164245605,
				1.3423293828964233,
				0.16619743406772614
			]
		},
		{
			"mesh":3,
			"name":"Circle.006",
			"rotation":[
				0.7071068286895752,
				0,
				0,
				0.7071068286895752
			],
			"scale":[
				0.09861389547586441,
				0.09861389547586441,
				0.09861389547586441
			],
			"translation":[
				0.35576701164245605,
				0.13882559537887573,
				0.16619743406772614
			]
		},
		{
			"mesh":3,
			"name":"Circle.007",
			"rotation":[
				0.7071068286895752,
				0,
				0,
				0.7071068286895752
			],
			"scale":[
				0.09861389547586441,
				0.09861389547586441,
				0.09861389547586441
			],
			"translation":[
				0.12829099595546722,
				0.13882559537887573,
				0.16619743406772614
			]
		},
		{
			"mesh":3,
			"name":"Circle.008",
			"rotation":[
				0.7071068286895752,
				0,
				0,
				0.7071068286895752
			],
			"scale":[
				0.09861389547586441,
				0.09861389547586441,
				0.09861389547586441
			],
			"translation":[
				-0.11049500107765198,
				0.13882559537887573,
				0.16619743406772614
			]
		},
		{
			"mesh":3,
			"name":"Circle.009",
			"rotation":[
				0.7071068286895752,
				0,
				0,
				0.7071068286895752
			],
			"scale":[
				0.09861389547586441,
				0.09861389547586441,
				0.09861389547586441
			],
			"translation":[
				-0.33907100558280945,
				0.13882559537887573,
				0.16619743406772614
			]
		},
		{
			"mesh":3,
			"name":"Circle.010",
			"rotation":[
				0.7071068286895752,
				0,
				0,
				0.7071068286895752
			],
			"scale":[
				0.09861389547586441,
				0.09861389547586441,
				0.09861389547586441
			],
			"translation":[
				-0.313740611076355,
				-0.46911346912384033,
				0.16619743406772614
			]
		},
		{
			"mesh":3,
			"name":"Circle.011",
			"rotation":[
				0.7071068286895752,
				0,
				0,
				0.7071068286895752
			],
			"scale":[
				0.09861389547586441,
				0.09861389547586441,
				0.09861389547586441
			],
			"translation":[
				0.0028944015502929688,
				-0.46911346912384033,
				0.16619743406772614
			]
		},
		{
			"mesh":3,
			"name":"Circle.012",
			"rotation":[
				0.7071068286895752,
				0,
				0,
				0.7071068286895752
			],
			"scale":[
				0.09861389547586441,
				0.09861389547586441,
				0.09861389547586441
			],
			"translation":[
				0.32375121116638184,
				-0.46911346912384033,
				0.16619743406772614
			]
		},
		{
			"mesh":3,
			"name":"Circle.013",
			"rotation":[
				0.7071068286895752,
				0,
				0,
				0.7071068286895752
			],
			"scale":[
				0.09861389547586441,
				0.09861389547586441,
				0.09861389547586441
			],
			"translation":[
				-0.313740611076355,
				-0.7730830907821655,
				0.16619743406772614
			]
		},
		{
			"mesh":3,
			"name":"Circle.014",
			"rotation":[
				0.7071068286895752,
				0,
				0,
				0.7071068286895752
			],
			"scale":[
				0.09861389547586441,
				0.09861389547586441,
				0.09861389547586441
			],
			"translation":[
				0.0028944015502929688,
				-0.7730830907821655,
				0.16619743406772614
			]
		},
		{
			"mesh":3,
			"name":"Circle.015",
			"rotation":[
				0.7071068286895752,
				0,
				0,
				0.7071068286895752
			],
			"scale":[
				0.09861389547586441,
				0.09861389547586441,
				0.09861389547586441
			],
			"translation":[
				0.32375121116638184,
				-0.7730830907821655,
				0.16619743406772614
			]
		},
		{
			"mesh":3,
			"name":"Circle.016",
			"rotation":[
				0.7071068286895752,
				0,
				0,
				0.7071068286895752
			],
			"scale":[
				0.09861389547586441,
				0.09861389547586441,
				0.09861389547586441
			],
			"translation":[
				-0.313740611076355,
				-1.066920280456543,
				0.16619743406772614
			]
		},
		{
			"mesh":3,
			"name":"Circle.017",
			"rotation":[
				0.7071068286895752,
				0,
				0,
				0.7071068286895752
			],
			"scale":[
				0.09861389547586441,
				0.09861389547586441,
				0.09861389547586441
			],
			"translation":[
				0.0028944015502929688,
				-1.066920280456543,
				0.16619743406772614
			]
		},
		{
			"mesh":3,
			"name":"Circle.018",
			"rotation":[
				0.7071068286895752,
				0,
				0,
				0.7071068286895752
			],
			"scale":[
				0.09861389547586441,
				0.09861389547586441,
				0.09861389547586441
			],
			"translation":[
				0.32375121116638184,
				-1.066920280456543,
				0.16619743406772614
			]
		},
		{
			"mesh":3,
			"name":"Circle.019",
			"rotation":[
				0.7071068286895752,
				0,
				0,
				0.7071068286895752
			],
			"scale":[
				0.09861389547586441,
				0.09861389547586441,
				0.09861389547586441
			],
			"translation":[
				-0.313740611076355,
				-1.3708899021148682,
				0.16619743406772614
			]
		},
		{
			"mesh":3,
			"name":"Circle.020",
			"rotation":[
				0.7071068286895752,
				0,
				0,
				0.7071068286895752
			],
			"scale":[
				0.09861389547586441,
				0.09861389547586441,
				0.09861389547586441
			],
			"translation":[
				0.0028944015502929688,
				-1.3708899021148682,
				0.16619743406772614
			]
		},
		{
			"mesh":3,
			"name":"Circle.021",
			"rotation":[
				0.7071068286895752,
				0,
				0,
				0.7071068286895752
			],
			"scale":[
				0.09861389547586441,
				0.09861389547586441,
				0.09861389547586441
			],
			"translation":[
				0.32375121116638184,
				-1.3708899021148682,
				0.16619743406772614
			]
		},
		{
			"mesh":4,
			"name":"Circle.022",
			"rotation":[
				0.7071068286895752,
				0,
				0,
				0.7071068286895752
			],
			"scale":[
				0.43409597873687744,
				0.43409597873687744,
				0.43409597873687744
			],
			"translation":[
				0.0063128843903541565,
				0.7430564761161804,
				0.12659525871276855
			]
		},
		{
			"mesh":5,
			"name":"Circle.023",
			"rotation":[
				0.7071068286895752,
				0,
				0,
				0.7071068286895752
			],
			"scale":[
				0.22360770404338837,
				0.22360770404338837,
				0.22360770404338837
			],
			"translation":[
				0.005994812585413456,
				0.7438662052154541,
				0.1526927649974823
			]
		},
		{
			"mesh":6,
			"name":"Cube.001",
			"scale":[
				0.11174619197845459,
				0.1047675609588623,
				0.022909319028258324
			],
			"translation":[
				-0.2957853078842163,
				-0.16018909215927124,
				0.16353100538253784
			]
		},
		{
			"mesh":6,
			"name":"Cube.002",
			"scale":[
				0.11174619197845459,
				0.1047675609588623,
				0.022909319028258324
			],
			"translation":[
				0.30840301513671875,
				-0.16018912196159363,
				0.16353100538253784
			]
		},
		{
			"mesh":7,
			"name":"Cube.003",
			"scale":[
				0.12137168645858765,
				0.0948019027709961,
				0.03134768083691597
			],
			"translation":[
				0.009070724248886108,
				-0.1565934717655182,
				0.13067209720611572
			]
		}
	],
	"cameras":[
		{
			"name":"Camera",
			"perspective":{
				"aspectRatio":1.7777777777777777,
				"yfov":0.39959652046304894,
				"zfar":100,
				"znear":0.10000000149011612
			},
			"type":"perspective"
		}
	],
	"materials":[
		{
			"doubleSided":true,
			"name":"Material",
			"pbrMetallicRoughness":{
				"baseColorFactor":[
					0.01467001810669899,
					0.01467001810669899,
					0.01467001810669899,
					1
				],
				"metallicFactor":0,
				"roughnessFactor":0.800000011920929
			}
		},
		{
			"doubleSided":true,
			"extensions":{
				"KHR_materials_specular":{
					"specularColorFactor":[
						2.0,
						2.0,
						2.0
					]
				},
				"KHR_materials_ior":{
					"ior":1.4500000476837158
				}
			},
			"name":"Material.003",
			"pbrMetallicRoughness":{
				"baseColorFactor":[
					0.5088813900947571,
					0.01599629782140255,
					0.017224669456481934,
					1
				],
				"metallicFactor":0,
				"roughnessFactor":0.5
			}
		},
		{
			"doubleSided":true,
			"extensions":{
				"KHR_materials_specular":{
					"specularColorFactor":[
						2.0,
						2.0,
						2.0
					]
				},
				"KHR_materials_ior":{
					"ior":1.4500000476837158
				}
			},
			"name":"Material.002",
			"pbrMetallicRoughness":{
				"baseColorFactor":[
					0.06301002949476242,
					0.4396572709083557,
					0.6866855025291443,
					1
				],
				"metallicFactor":0,
				"roughnessFactor":0.5
			}
		},
		{
			"doubleSided":true,
			"extensions":{
				"KHR_materials_specular":{
					"specularColorFactor":[
						2.0,
						2.0,
						2.0
					]
				},
				"KHR_materials_ior":{
					"ior":1.4500000476837158
				}
			},
			"name":"Material.001",
			"pbrMetallicRoughness":{
				"baseColorFactor":[
					0,
					0,
					0,
					1
				],
				"metallicFactor":0,
				"roughnessFactor":0.5
			}
		}
	],
	"meshes":[
		{
			"name":"Cube",
			"primitives":[
				{
					"attributes":{
						"POSITION":0,
						"NORMAL":1,
						"TEXCOORD_0":2
					},
					"indices":3,
					"material":0
				}
			]
		},
		{
			"name":"Circle",
			"primitives":[
				{
					"attributes":{
						"POSITION":4,
						"NORMAL":5,
						"TEXCOORD_0":6
					},
					"indices":7,
					"material":1
				}
			]
		},
		{
			"name":"Circle.005",
			"primitives":[
				{
					"attributes":{
						"POSITION":8,
						"NORMAL":9,
						"TEXCOORD_0":10
					},
					"indices":7,
					"material":2
				}
			]
		},
		{
			"name":"Circle.001",
			"primitives":[
				{
					"attributes":{
						"POSITION":11,
						"NORMAL":12,
						"TEXCOORD_0":13
					},
					"indices":14,
					"material":3
				}
			]
		},
		{
			"name":"Circle.002",
			"primitives":[
				{
					"attributes":{
						"POSITION":15,
						"NORMAL":16,
						"TEXCOORD_0":17,
						"TANGENT":18
					},
					"indices":19,
					"material":3
				}
			]
		},
		{
			"name":"Circle.003",
			"primitives":[
				{
					"attributes":{
						"POSITION":20,
						"NORMAL":21,
						"TEXCOORD_0":22
					},
					"indices":23,
					"material":0
				}
			]
		},
		{
			"name":"Cube.001",
			"primitives":[
				{
					"attributes":{
						"POSITION":24,
						"NORMAL":25,
						"TEXCOORD_0":26
					},
					"indices":27,
					"material":3
				}
			]
		},
		{
			"name":"Cube.002",
			"primitives":[
				{
					"attributes":{
						"POSITION":28,
						"NORMAL":29,
						"TEXCOORD_0":30,
						"TANGENT":31
					},
					"indices":32,
					"material":3
				}
			]
		}
	],
	"accessors":[
		{
			"bufferView":0,
			"componentType":5126,
			"count":332,
			"max":[
				0.563281238079071,
				2.1684470176696777,
				0.13061952590942383
			],
			"min":[
				-0.563281238079071,
				-2.007951259613037,
				-0.07809357345104218
			],
			"type":"VEC3"
		},
		{
			"bufferView":1,
			"componentType":5126,
			"count":332,
			"type":"VEC3"
		},
		{
			"bufferView":2,
			"componentType":5126,
			"count":332,
			"type":"VEC2"
		},
		{
			"bufferView":3,
			"componentType":5123,
			"count":1140,
			"type":"SCALAR"
		},
		{
			"bufferView":4,
			"componentType":5126,
			"count":224,
			"max":[
				1,
				0.47186794877052307,
				1
			],
			"min":[
				-1,
				0,
				-1
			],
			"type":"VEC3"
		},
		{
			"bufferView":5,
			"componentType":5126,
			"count":224,
			"type":"VEC3"
		},
		{
			"bufferView":6,
			"componentType":5126,
			"count":224,
			"type":"VEC2"
		},
		{
			"bufferView":7,
			"componentType":5123,
			"count":1332,
			"type":"SCALAR"
		},
		{
			"bufferView":8,
			"componentType":5126,
			"count":224,
			"max":[
				1,
				0.47186794877052307,
				1
			],
			"min":[
				-1,
				0,
				-1
			],
			"type":"VEC3"
		},
		{
			"bufferView":9,
			"componentType":5126,
			"count":224,
			"type":"VEC3"
		},
		{
			"bufferView":10,
			"componentType":5126,
			"count":224,
			"type":"VEC2"
		},
		{
			"bufferView":11,
			"componentType":5126,
			"count":224,
			"max":[
				1,
				0,
				1
			],
			"min":[
				-1,
				-0.46236324310302734,
				-1
			],
			"type":"VEC3"
		},
		{
			"bufferView":12,
			"componentType":5126,
			"count":224,
			"type":"VEC3"
		},
		{
			"bufferView":13,
			"componentType":5126,
			"count":224,
			"type":"VEC2"
		},
		{
			"bufferView":14,
			"componentType":5123,
			"count":1332,
			"type":"SCALAR"
		},
		{
			"bufferView":15,
			"componentType":5126,
			"count":448,
			"max":[
				1,
				0.09823077917098999,
				1
			],
			"min":[
				-1,
				-0.004163898527622223,
				-1
			],
			"type":"VEC3"
		},
		{
			"bufferView":16,
			"componentType":5126,
			"count":448,
			"type":"VEC3"
		},
		{
			"bufferView":17,
			"componentType":5126,
			"count":448,
			"type":"VEC2"
		},
		{
			"bufferView":18,
			"componentType":5126,
			"count":448,
			"type":"VEC4"
		},
		{
			"bufferView":19,
			"componentType":5123,
			"count":2688,
			"type":"SCALAR"
		},
		{
			"bufferView":20,
			"componentType":5126,
			"count":224,
			"max":[
				1,
				0.09802902489900589,
				1
			],
			"min":[
				-1,
				-0.12767204642295837,
				-1
			],
			"type":"VEC3"
		},
		{
			"bufferView":21,
			"componentType":5126,
			"count":224,
			"type":"VEC3"
		},
		{
			"bufferView":22,
			"componentType":5126,
			"count":224,
			"type":"VEC2"
		},
		{
			"bufferView":23,
			"componentType":5123,
			"count":1332,
			"type":"SCALAR"
		},
		{
			"bufferView":24,
			"componentType":5126,
			"count":400,
			"max":[
				1.1515657901763916,
				0.9999997615814209,
				0.08277654647827148
			],
			"min":[
				-1.1515684127807617,
				-1.000000238418579,
				-1.9172234535217285
			],
			"type":"VEC3"
		},
		{
			"bufferView":25,
			"componentType":5126,
			"count":400,
			"type":"VEC3"
		},
		{
			"bufferView":26,
			"componentType":5126,
			"count":400,
			"type":"VEC2"
		},
		{
			"bufferView":27,
			"componentType":5123,
			"count":1332,
			"type":"SCALAR"
		},
		{
			"bufferView":28,
			"componentType":5126,
			"count":348,
			"max":[
				1,
				1,
				1
			],
			"min":[
				-1,
				-1,
				-1
			],
			"type":"VEC3"
		},
		{
			"bufferView":29,
			"componentType":5126,
			"count":348,
			"type":"VEC3"
		},
		{
			"bufferView":30,
			"componentType":5126,
			"count":348,
			"type":"VEC2"
		},
		{
			"bufferView":31,
			"componentType":5126,
			"count":348,
			"type":"VEC4"
		},
		{
			"bufferView":32,
			"componentType":5123,
			"count":1764,
			"type":"SCALAR"
		}
	],
	"bufferViews":[
		{
			"buffer":0,
			"byteLength":3984,
			"byteOffset":0,
			"target":34962
		},
		{
			"buffer":0,
			"byteLength":3984,
			"byteOffset":3984,
			"target":34962
		},
		{
			"buffer":0,
			"byteLength":2656,
			"byteOffset":7968,
			"target":34962
		},
		{
			"buffer":0,
			"byteLength":2280,
			"byteOffset":10624,
			"target":34963
		},
		{
			"buffer":0,
			"byteLength":2688,
			"byteOffset":12904,
			"target":34962
		},
		{
			"buffer":0,
			"byteLength":2688,
			"byteOffset":15592,
			"target":34962
		},
		{
			"buffer":0,
			"byteLength":1792,
			"byteOffset":18280,
			"target":34962
		},
		{
			"buffer":0,
			"byteLength":2664,
			"byteOffset":20072,
			"target":34963
		},
		{
			"buffer":0,
			"byteLength":2688,
			"byteOffset":22736,
			"target":34962
		},
		{
			"buffer":0,
			"byteLength":2688,
			"byteOffset":25424,
			"target":34962
		},
		{
			"buffer":0,
			"byteLength":1792,
			"byteOffset":28112,
			"target":34962
		},
		{
			"buffer":0,
			"byteLength":2688,
			"byteOffset":29904,
			"target":34962
		},
		{
			"buffer":0,
			"byteLength":2688,
			"byteOffset":32592,
			"target":34962
		},
		{
			"buffer":0,
			"byteLength":1792,
			"byteOffset":35280,
			"target":34962
		},
		{
			"buffer":0,
			"byteLength":2664,
			"byteOffset":37072,
			"target":34963
		},
		{
			"buffer":0,
			"byteLength":5376,
			"byteOffset":39736,
			"target":34962
		},
		{
			"buffer":0,
			"byteLength":5376,
			"byteOffset":45112,
			"target":34962
		},
		{
			"buffer":0,
			"byteLength":3584,
			"byteOffset":50488,
			"target":34962
		},
		{
			"buffer":0,
			"byteLength":7168,
			"byteOffset":54072,
			"target":34962
		},
		{
			"buffer":0,
			"byteLength":5376,
			"byteOffset":61240,
			"target":34963
		},
		{
			"buffer":0,
			"byteLength":2688,
			"byteOffset":66616,
			"target":34962
		},
		{
			"buffer":0,
			"byteLength":2688,
			"byteOffset":69304,
			"target":34962
		},
		{
			"buffer":0,
			"byteLength":1792,
			"byteOffset":71992,
			"target":34962
		},
		{
			"buffer":0,
			"byteLength":2664,
			"byteOffset":73784,
			"target":34963
		},
		{
			"buffer":0,
			"byteLength":4800,
			"byteOffset":76448,
			"target":34962
		},
		{
			"buffer":0,
			"byteLength":4800,
			"byteOffset":81248,
			"target":34962
		},
		{
			"buffer":0,
			"byteLength":3200,
			"byteOffset":86048,
			"target":34962
		},
		{
			"buffer":0,
			"byteLength":2664,
			"byteOffset":89248,
			"target":34963
		},
		{
			"buffer":0,
			"byteLength":4176,
			"byteOffset":91912,
			"target":34962
		},
		{
			"buffer":0,
			"byteLength":4176,
			"byteOffset":96088,
			"target":34962
		},
		{
			"buffer":0,
			"byteLength":2784,
			"byteOffset":100264,
			"target":34962
		},
		{
			"buffer":0,
			"byteLength":5568,
			"byteOffset":103048,
			"target":34962
		},
		{
			"buffer":0,
			"byteLength":3528,
			"byteOffset":108616,
			"target":34963
		}
	],
	"buffers":[
		{
			"byteLength":112144,
			"uri":"tvRemote-1febe11a0a11c700d71477846c6356e9.bin"
		}
	]
}
