{
	"asset":{
		"generator":"Khronos glTF Blender I/O v4.3.47",
		"version":"2.0"
	},
	"extensionsUsed":[
		"KHR_lights_punctual"
	],
	"extensionsRequired":[
		"KHR_lights_punctual"
	],
	"extensions":{
		"KHR_lights_punctual":{
			"lights":[
				{
					"color":[
						1,
						1,
						1
					],
					"intensity":108702.82613176452,
					"type":"point",
					"name":"Light"
				}
			]
		}
	},
	"scene":0,
	"scenes":[
		{
			"name":"Scene",
			"nodes":[
				0,
				1,
				2,
				3,
				4,
				5,
				6,
				7,
				8,
				9,
				10,
				11,
				12
			]
		}
	],
	"nodes":[
		{
			"mesh":0,
			"name":"stand",
			"scale":[
				1,
				1,
				3.825897216796875
			],
			"translation":[
				0,
				1.0557544231414795,
				0
			]
		},
		{
			"extensions":{
				"KHR_lights_punctual":{
					"light":0
				}
			},
			"name":"Light",
			"rotation":[
				-0.28416627645492554,
				0.7269423007965088,
				0.34203392267227173,
				0.5232754945755005
			],
			"translation":[
				5.339363098144531,
				7.713294506072998,
				-2.8353328704833984
			]
		},
		{
			"camera":0,
			"name":"Camera",
			"rotation":[
				-0.26564961671829224,
				0.6553093791007996,
				0.2656497061252594,
				0.6553092002868652
			],
			"translation":[
				11.831121444702148,
				13.087821960449219,
				0.058330077677965164
			]
		},
		{
			"mesh":1,
			"name":"drawer",
			"translation":[
				1.2999999523162842,
				0,
				0
			]
		},
		{
			"mesh":2,
			"name":"Cube.001",
			"scale":[
				1,
				1,
				3.825897216796875
			],
			"translation":[
				1.1133390665054321,
				1.1905996799468994,
				2.721367835998535
			]
		},
		{
			"mesh":3,
			"name":"Cube.002",
			"scale":[
				1,
				1,
				3.825897216796875
			],
			"translation":[
				1.1133390665054321,
				0.4105357825756073,
				2.721367835998535
			]
		},
		{
			"mesh":4,
			"name":"Cube.003",
			"scale":[
				1,
				1,
				3.825897216796875
			],
			"translation":[
				1.1133390665054321,
				1.8026645183563232,
				2.721367835998535
			]
		},
		{
			"mesh":5,
			"name":"Cube.005",
			"scale":[
				1,
				1,
				3.825897216796875
			],
			"translation":[
				1.1133390665054321,
				1.8026645183563232,
				-2.6122846603393555
			]
		},
		{
			"mesh":6,
			"name":"Cube.006",
			"scale":[
				1,
				1,
				3.825897216796875
			],
			"translation":[
				1.1133390665054321,
				1.197324514389038,
				-2.6122846603393555
			]
		},
		{
			"mesh":7,
			"name":"Cube.007",
			"scale":[
				1,
				1,
				3.825897216796875
			],
			"translation":[
				1.1133390665054321,
				0.41973328590393066,
				-2.6122846603393555
			]
		},
		{
			"mesh":8,
			"name":"tvLeg1",
			"rotation":[
				0,
				0,
				-0.5293850302696228,
				0.8483816981315613
			],
			"scale":[
				0.7193523049354553,
				0.1482323557138443,
				0.7193523049354553
			],
			"translation":[
				0.20677925646305084,
				2.121020555496216,
				1.4000755548477173
			]
		},
		{
			"mesh":9,
			"name":"tvLeg2",
			"rotation":[
				0,
				0,
				-0.5293850302696228,
				0.8483816981315613
			],
			"scale":[
				0.7193523049354553,
				0.1482323557138443,
				0.7193523049354553
			],
			"translation":[
				0.20677925646305084,
				2.121020555496216,
				-1.5035887956619263
			]
		},
		{
			"mesh":10,
			"name":"tv",
			"rotation":[
				0,
				0,
				-0.7071068286895752,
				0.7071068286895752
			],
			"scale":[
				1,
				1,
				2.016317844390869
			],
			"translation":[
				0.4289286136627197,
				3.218644857406616,
				-0.05006599426269531
			]
		}
	],
	"cameras":[
		{
			"name":"Camera",
			"perspective":{
				"aspectRatio":1.7777777777777777,
				"yfov":0.39959652046304894,
				"zfar":100,
				"znear":0.10000000149011612
			},
			"type":"perspective"
		}
	],
	"animations":[
		{
			"channels":[
				{
					"sampler":0,
					"target":{
						"node":3,
						"path":"translation"
					}
				}
			],
			"name":"drawerClose",
			"samplers":[
				{
					"input":57,
					"interpolation":"LINEAR",
					"output":58
				}
			]
		},
		{
			"channels":[
				{
					"sampler":0,
					"target":{
						"node":3,
						"path":"translation"
					}
				}
			],
			"name":"drawerOpen",
			"samplers":[
				{
					"input":57,
					"interpolation":"LINEAR",
					"output":59
				}
			]
		}
	],
	"materials":[
		{
			"doubleSided":true,
			"name":"Material.001",
			"pbrMetallicRoughness":{
				"baseColorFactor":[
					0.0866892859339714,
					0.056330710649490356,
					0.02951006405055523,
					1
				],
				"metallicFactor":0,
				"roughnessFactor":0.5
			}
		},
		{
			"doubleSided":true,
			"name":"Material",
			"pbrMetallicRoughness":{
				"baseColorFactor":[
					0.7343969941139221,
					0.5592678785324097,
					0.04212214797735214,
					1
				],
				"metallicFactor":0.2594936788082123,
				"roughnessFactor":0.5
			}
		},
		{
			"doubleSided":true,
			"name":"Material.003",
			"pbrMetallicRoughness":{
				"baseColorFactor":[
					0.02317499741911888,
					0.02317499741911888,
					0.02317499741911888,
					1
				],
				"metallicFactor":0.8860759735107422
			}
		},
		{
			"doubleSided":true,
			"name":"Material.002",
			"pbrMetallicRoughness":{
				"baseColorFactor":[
					0.02317499741911888,
					0.02317499741911888,
					0.02317499741911888,
					1
				],
				"roughnessFactor":0.10000000149011612
			}
		}
	],
	"meshes":[
		{
			"name":"Cube",
			"primitives":[
				{
					"attributes":{
						"POSITION":0,
						"NORMAL":1,
						"TEXCOORD_0":2,
						"TANGENT":3
					},
					"indices":4,
					"material":0
				}
			]
		},
		{
			"name":"Cube.008",
			"primitives":[
				{
					"attributes":{
						"POSITION":5,
						"NORMAL":6,
						"TEXCOORD_0":7,
						"TANGENT":8
					},
					"indices":9,
					"material":0
				},
				{
					"attributes":{
						"POSITION":10,
						"NORMAL":11,
						"TEXCOORD_0":12,
						"TANGENT":13
					},
					"indices":14,
					"material":1
				}
			]
		},
		{
			"name":"Cube.001",
			"primitives":[
				{
					"attributes":{
						"POSITION":15,
						"NORMAL":16,
						"TEXCOORD_0":17,
						"TANGENT":18
					},
					"indices":19,
					"material":1
				}
			]
		},
		{
			"name":"Cube.002",
			"primitives":[
				{
					"attributes":{
						"POSITION":20,
						"NORMAL":21,
						"TEXCOORD_0":22,
						"TANGENT":23
					},
					"indices":19,
					"material":1
				}
			]
		},
		{
			"name":"Cube.003",
			"primitives":[
				{
					"attributes":{
						"POSITION":24,
						"NORMAL":25,
						"TEXCOORD_0":26,
						"TANGENT":27
					},
					"indices":19,
					"material":1
				}
			]
		},
		{
			"name":"Cube.005",
			"primitives":[
				{
					"attributes":{
						"POSITION":28,
						"NORMAL":29,
						"TEXCOORD_0":30,
						"TANGENT":31
					},
					"indices":19,
					"material":1
				}
			]
		},
		{
			"name":"Cube.006",
			"primitives":[
				{
					"attributes":{
						"POSITION":32,
						"NORMAL":33,
						"TEXCOORD_0":34,
						"TANGENT":35
					},
					"indices":19,
					"material":1
				}
			]
		},
		{
			"name":"Cube.007",
			"primitives":[
				{
					"attributes":{
						"POSITION":36,
						"NORMAL":37,
						"TEXCOORD_0":38,
						"TANGENT":39
					},
					"indices":19,
					"material":1
				}
			]
		},
		{
			"name":"Cylinder",
			"primitives":[
				{
					"attributes":{
						"POSITION":40,
						"NORMAL":41,
						"TEXCOORD_0":42
					},
					"indices":43,
					"material":2
				}
			]
		},
		{
			"name":"Cylinder.002",
			"primitives":[
				{
					"attributes":{
						"POSITION":44,
						"NORMAL":45,
						"TEXCOORD_0":46
					},
					"indices":43,
					"material":2
				}
			]
		},
		{
			"name":"Plane",
			"primitives":[
				{
					"attributes":{
						"POSITION":47,
						"NORMAL":48,
						"TEXCOORD_0":49,
						"TANGENT":50
					},
					"indices":51,
					"material":2
				},
				{
					"attributes":{
						"POSITION":52,
						"NORMAL":53,
						"TEXCOORD_0":54,
						"TANGENT":55
					},
					"indices":56,
					"material":3
				}
			]
		}
	],
	"accessors":[
		{
			"bufferView":0,
			"componentType":5126,
			"count":252,
			"max":[
				1.0344501733779907,
				1,
				1
			],
			"min":[
				-1,
				-1,
				-1
			],
			"type":"VEC3"
		},
		{
			"bufferView":1,
			"componentType":5126,
			"count":252,
			"type":"VEC3"
		},
		{
			"bufferView":2,
			"componentType":5126,
			"count":252,
			"type":"VEC2"
		},
		{
			"bufferView":3,
			"componentType":5126,
			"count":252,
			"type":"VEC4"
		},
		{
			"bufferView":4,
			"componentType":5123,
			"count":546,
			"type":"SCALAR"
		},
		{
			"bufferView":5,
			"componentType":5126,
			"count":56,
			"max":[
				1.0438536405563354,
				2.009920597076416,
				1.2332197427749634
			],
			"min":[
				-0.4946213960647583,
				1.5891475677490234,
				-1.2356535196304321
			],
			"type":"VEC3"
		},
		{
			"bufferView":6,
			"componentType":5126,
			"count":56,
			"type":"VEC3"
		},
		{
			"bufferView":7,
			"componentType":5126,
			"count":56,
			"type":"VEC2"
		},
		{
			"bufferView":8,
			"componentType":5126,
			"count":56,
			"type":"VEC4"
		},
		{
			"bufferView":9,
			"componentType":5123,
			"count":102,
			"type":"SCALAR"
		},
		{
			"bufferView":10,
			"componentType":5126,
			"count":569,
			"max":[
				1.1829537153244019,
				1.861452341079712,
				0.0499584823846817
			],
			"min":[
				1.0385843515396118,
				1.743876576423645,
				-0.06761728972196579
			],
			"type":"VEC3"
		},
		{
			"bufferView":11,
			"componentType":5126,
			"count":569,
			"type":"VEC3"
		},
		{
			"bufferView":12,
			"componentType":5126,
			"count":569,
			"type":"VEC2"
		},
		{
			"bufferView":13,
			"componentType":5126,
			"count":569,
			"type":"VEC4"
		},
		{
			"bufferView":14,
			"componentType":5123,
			"count":2928,
			"type":"SCALAR"
		},
		{
			"bufferView":15,
			"componentType":5126,
			"count":569,
			"max":[
				0.06021130084991455,
				0.058788031339645386,
				0.015366077423095703
			],
			"min":[
				-0.08415818214416504,
				-0.05878782272338867,
				-0.01536548137664795
			],
			"type":"VEC3"
		},
		{
			"bufferView":16,
			"componentType":5126,
			"count":569,
			"type":"VEC3"
		},
		{
			"bufferView":17,
			"componentType":5126,
			"count":569,
			"type":"VEC2"
		},
		{
			"bufferView":18,
			"componentType":5126,
			"count":569,
			"type":"VEC4"
		},
		{
			"bufferView":19,
			"componentType":5123,
			"count":2928,
			"type":"SCALAR"
		},
		{
			"bufferView":20,
			"componentType":5126,
			"count":569,
			"max":[
				0.06021130084991455,
				0.058788031339645386,
				0.015366077423095703
			],
			"min":[
				-0.08415818214416504,
				-0.05878782272338867,
				-0.01536548137664795
			],
			"type":"VEC3"
		},
		{
			"bufferView":21,
			"componentType":5126,
			"count":569,
			"type":"VEC3"
		},
		{
			"bufferView":22,
			"componentType":5126,
			"count":569,
			"type":"VEC2"
		},
		{
			"bufferView":23,
			"componentType":5126,
			"count":569,
			"type":"VEC4"
		},
		{
			"bufferView":24,
			"componentType":5126,
			"count":569,
			"max":[
				0.06021130084991455,
				0.058788031339645386,
				0.015366077423095703
			],
			"min":[
				-0.08415818214416504,
				-0.05878782272338867,
				-0.01536548137664795
			],
			"type":"VEC3"
		},
		{
			"bufferView":25,
			"componentType":5126,
			"count":569,
			"type":"VEC3"
		},
		{
			"bufferView":26,
			"componentType":5126,
			"count":569,
			"type":"VEC2"
		},
		{
			"bufferView":27,
			"componentType":5126,
			"count":569,
			"type":"VEC4"
		},
		{
			"bufferView":28,
			"componentType":5126,
			"count":569,
			"max":[
				0.06021130084991455,
				0.058788031339645386,
				0.015366077423095703
			],
			"min":[
				-0.08415818214416504,
				-0.05878782272338867,
				-0.01536548137664795
			],
			"type":"VEC3"
		},
		{
			"bufferView":29,
			"componentType":5126,
			"count":569,
			"type":"VEC3"
		},
		{
			"bufferView":30,
			"componentType":5126,
			"count":569,
			"type":"VEC2"
		},
		{
			"bufferView":31,
			"componentType":5126,
			"count":569,
			"type":"VEC4"
		},
		{
			"bufferView":32,
			"componentType":5126,
			"count":569,
			"max":[
				0.06021130084991455,
				0.058788031339645386,
				0.015366077423095703
			],
			"min":[
				-0.08415818214416504,
				-0.05878782272338867,
				-0.01536548137664795
			],
			"type":"VEC3"
		},
		{
			"bufferView":33,
			"componentType":5126,
			"count":569,
			"type":"VEC3"
		},
		{
			"bufferView":34,
			"componentType":5126,
			"count":569,
			"type":"VEC2"
		},
		{
			"bufferView":35,
			"componentType":5126,
			"count":569,
			"type":"VEC4"
		},
		{
			"bufferView":36,
			"componentType":5126,
			"count":569,
			"max":[
				0.06021130084991455,
				0.058788031339645386,
				0.015366077423095703
			],
			"min":[
				-0.08415818214416504,
				-0.05878782272338867,
				-0.01536548137664795
			],
			"type":"VEC3"
		},
		{
			"bufferView":37,
			"componentType":5126,
			"count":569,
			"type":"VEC3"
		},
		{
			"bufferView":38,
			"componentType":5126,
			"count":569,
			"type":"VEC2"
		},
		{
			"bufferView":39,
			"componentType":5126,
			"count":569,
			"type":"VEC4"
		},
		{
			"bufferView":40,
			"componentType":5126,
			"count":112,
			"max":[
				0.3926057815551758,
				2.8868749141693115,
				0.05000019073486328
			],
			"min":[
				-0.050000011920928955,
				-1.219294786453247,
				-0.050000011920928955
			],
			"type":"VEC3"
		},
		{
			"bufferView":41,
			"componentType":5126,
			"count":112,
			"type":"VEC3"
		},
		{
			"bufferView":42,
			"componentType":5126,
			"count":112,
			"type":"VEC2"
		},
		{
			"bufferView":43,
			"componentType":5123,
			"count":180,
			"type":"SCALAR"
		},
		{
			"bufferView":44,
			"componentType":5126,
			"count":112,
			"max":[
				0.3926057815551758,
				2.8868749141693115,
				0.05000019073486328
			],
			"min":[
				-0.050000011920928955,
				-1.219294786453247,
				-0.050000011920928955
			],
			"type":"VEC3"
		},
		{
			"bufferView":45,
			"componentType":5126,
			"count":112,
			"type":"VEC3"
		},
		{
			"bufferView":46,
			"componentType":5126,
			"count":112,
			"type":"VEC2"
		},
		{
			"bufferView":47,
			"componentType":5126,
			"count":28,
			"max":[
				1,
				0,
				1
			],
			"min":[
				-1,
				-0.10363669693470001,
				-1
			],
			"type":"VEC3"
		},
		{
			"bufferView":48,
			"componentType":5126,
			"count":28,
			"type":"VEC3"
		},
		{
			"bufferView":49,
			"componentType":5126,
			"count":28,
			"type":"VEC2"
		},
		{
			"bufferView":50,
			"componentType":5126,
			"count":28,
			"type":"VEC4"
		},
		{
			"bufferView":51,
			"componentType":5123,
			"count":54,
			"type":"SCALAR"
		},
		{
			"bufferView":52,
			"componentType":5126,
			"count":4,
			"max":[
				0.9693202972412109,
				-0.013841870240867138,
				0.9704926609992981
			],
			"min":[
				-0.9693201780319214,
				-0.04131978377699852,
				-0.9681478142738342
			],
			"type":"VEC3"
		},
		{
			"bufferView":53,
			"componentType":5126,
			"count":4,
			"type":"VEC3"
		},
		{
			"bufferView":54,
			"componentType":5126,
			"count":4,
			"type":"VEC2"
		},
		{
			"bufferView":55,
			"componentType":5126,
			"count":4,
			"type":"VEC4"
		},
		{
			"bufferView":56,
			"componentType":5123,
			"count":6,
			"type":"SCALAR"
		},
		{
			"bufferView":57,
			"componentType":5126,
			"count":40,
			"max":[
				1.6666666666666667
			],
			"min":[
				0.041666666666666664
			],
			"type":"SCALAR"
		},
		{
			"bufferView":58,
			"componentType":5126,
			"count":40,
			"type":"VEC3"
		},
		{
			"bufferView":59,
			"componentType":5126,
			"count":40,
			"type":"VEC3"
		}
	],
	"bufferViews":[
		{
			"buffer":0,
			"byteLength":3024,
			"byteOffset":0,
			"target":34962
		},
		{
			"buffer":0,
			"byteLength":3024,
			"byteOffset":3024,
			"target":34962
		},
		{
			"buffer":0,
			"byteLength":2016,
			"byteOffset":6048,
			"target":34962
		},
		{
			"buffer":0,
			"byteLength":4032,
			"byteOffset":8064,
			"target":34962
		},
		{
			"buffer":0,
			"byteLength":1092,
			"byteOffset":12096,
			"target":34963
		},
		{
			"buffer":0,
			"byteLength":672,
			"byteOffset":13188,
			"target":34962
		},
		{
			"buffer":0,
			"byteLength":672,
			"byteOffset":13860,
			"target":34962
		},
		{
			"buffer":0,
			"byteLength":448,
			"byteOffset":14532,
			"target":34962
		},
		{
			"buffer":0,
			"byteLength":896,
			"byteOffset":14980,
			"target":34962
		},
		{
			"buffer":0,
			"byteLength":204,
			"byteOffset":15876,
			"target":34963
		},
		{
			"buffer":0,
			"byteLength":6828,
			"byteOffset":16080,
			"target":34962
		},
		{
			"buffer":0,
			"byteLength":6828,
			"byteOffset":22908,
			"target":34962
		},
		{
			"buffer":0,
			"byteLength":4552,
			"byteOffset":29736,
			"target":34962
		},
		{
			"buffer":0,
			"byteLength":9104,
			"byteOffset":34288,
			"target":34962
		},
		{
			"buffer":0,
			"byteLength":5856,
			"byteOffset":43392,
			"target":34963
		},
		{
			"buffer":0,
			"byteLength":6828,
			"byteOffset":49248,
			"target":34962
		},
		{
			"buffer":0,
			"byteLength":6828,
			"byteOffset":56076,
			"target":34962
		},
		{
			"buffer":0,
			"byteLength":4552,
			"byteOffset":62904,
			"target":34962
		},
		{
			"buffer":0,
			"byteLength":9104,
			"byteOffset":67456,
			"target":34962
		},
		{
			"buffer":0,
			"byteLength":5856,
			"byteOffset":76560,
			"target":34963
		},
		{
			"buffer":0,
			"byteLength":6828,
			"byteOffset":82416,
			"target":34962
		},
		{
			"buffer":0,
			"byteLength":6828,
			"byteOffset":89244,
			"target":34962
		},
		{
			"buffer":0,
			"byteLength":4552,
			"byteOffset":96072,
			"target":34962
		},
		{
			"buffer":0,
			"byteLength":9104,
			"byteOffset":100624,
			"target":34962
		},
		{
			"buffer":0,
			"byteLength":6828,
			"byteOffset":109728,
			"target":34962
		},
		{
			"buffer":0,
			"byteLength":6828,
			"byteOffset":116556,
			"target":34962
		},
		{
			"buffer":0,
			"byteLength":4552,
			"byteOffset":123384,
			"target":34962
		},
		{
			"buffer":0,
			"byteLength":9104,
			"byteOffset":127936,
			"target":34962
		},
		{
			"buffer":0,
			"byteLength":6828,
			"byteOffset":137040,
			"target":34962
		},
		{
			"buffer":0,
			"byteLength":6828,
			"byteOffset":143868,
			"target":34962
		},
		{
			"buffer":0,
			"byteLength":4552,
			"byteOffset":150696,
			"target":34962
		},
		{
			"buffer":0,
			"byteLength":9104,
			"byteOffset":155248,
			"target":34962
		},
		{
			"buffer":0,
			"byteLength":6828,
			"byteOffset":164352,
			"target":34962
		},
		{
			"buffer":0,
			"byteLength":6828,
			"byteOffset":171180,
			"target":34962
		},
		{
			"buffer":0,
			"byteLength":4552,
			"byteOffset":178008,
			"target":34962
		},
		{
			"buffer":0,
			"byteLength":9104,
			"byteOffset":182560,
			"target":34962
		},
		{
			"buffer":0,
			"byteLength":6828,
			"byteOffset":191664,
			"target":34962
		},
		{
			"buffer":0,
			"byteLength":6828,
			"byteOffset":198492,
			"target":34962
		},
		{
			"buffer":0,
			"byteLength":4552,
			"byteOffset":205320,
			"target":34962
		},
		{
			"buffer":0,
			"byteLength":9104,
			"byteOffset":209872,
			"target":34962
		},
		{
			"buffer":0,
			"byteLength":1344,
			"byteOffset":218976,
			"target":34962
		},
		{
			"buffer":0,
			"byteLength":1344,
			"byteOffset":220320,
			"target":34962
		},
		{
			"buffer":0,
			"byteLength":896,
			"byteOffset":221664,
			"target":34962
		},
		{
			"buffer":0,
			"byteLength":360,
			"byteOffset":222560,
			"target":34963
		},
		{
			"buffer":0,
			"byteLength":1344,
			"byteOffset":222920,
			"target":34962
		},
		{
			"buffer":0,
			"byteLength":1344,
			"byteOffset":224264,
			"target":34962
		},
		{
			"buffer":0,
			"byteLength":896,
			"byteOffset":225608,
			"target":34962
		},
		{
			"buffer":0,
			"byteLength":336,
			"byteOffset":226504,
			"target":34962
		},
		{
			"buffer":0,
			"byteLength":336,
			"byteOffset":226840,
			"target":34962
		},
		{
			"buffer":0,
			"byteLength":224,
			"byteOffset":227176,
			"target":34962
		},
		{
			"buffer":0,
			"byteLength":448,
			"byteOffset":227400,
			"target":34962
		},
		{
			"buffer":0,
			"byteLength":108,
			"byteOffset":227848,
			"target":34963
		},
		{
			"buffer":0,
			"byteLength":48,
			"byteOffset":227956,
			"target":34962
		},
		{
			"buffer":0,
			"byteLength":48,
			"byteOffset":228004,
			"target":34962
		},
		{
			"buffer":0,
			"byteLength":32,
			"byteOffset":228052,
			"target":34962
		},
		{
			"buffer":0,
			"byteLength":64,
			"byteOffset":228084,
			"target":34962
		},
		{
			"buffer":0,
			"byteLength":12,
			"byteOffset":228148,
			"target":34963
		},
		{
			"buffer":0,
			"byteLength":160,
			"byteOffset":228160
		},
		{
			"buffer":0,
			"byteLength":480,
			"byteOffset":228320
		},
		{
			"buffer":0,
			"byteLength":480,
			"byteOffset":228800
		}
	],
	"buffers":[
		{
			"byteLength":229280,
			"uri":"tvStand-b4f2da03362cae4fa3cd1f23248e3167.bin"
		}
	]
}
