{
	"asset":{
		"generator":"Khronos glTF Blender I/O v4.3.47",
		"version":"2.0"
	},
	"extensionsUsed":[
		"KHR_lights_punctual",
		"KHR_materials_transmission",
		"KHR_materials_specular"
	],
	"extensionsRequired":[
		"KHR_lights_punctual"
	],
	"extensions":{
		"KHR_lights_punctual":{
			"lights":[
				{
					"color":[
						1,
						1,
						1
					],
					"intensity":54351.41306588226,
					"type":"point",
					"name":"Light"
				}
			]
		}
	},
	"scene":0,
	"scenes":[
		{
			"name":"Scene",
			"nodes":[
				0,
				1,
				2,
				3,
				4,
				5,
				6
			]
		}
	],
	"nodes":[
		{
			"extensions":{
				"KHR_lights_punctual":{
					"light":0
				}
			},
			"name":"Light",
			"rotation":[
				-0.28416627645492554,
				0.7269423007965088,
				0.34203392267227173,
				0.5232754945755005
			],
			"translation":[
				0.09420943260192871,
				13.708467483520508,
				8.679518699645996
			]
		},
		{
			"camera":0,
			"name":"Camera",
			"rotation":[
				-0.0023269837256520987,
				0,
				0,
				0.9999973177909851
			],
			"translation":[
				0.03575645014643669,
				2.5944933891296387,
				25.884157180786133
			]
		},
		{
			"mesh":0,
			"name":"windowGlass",
			"rotation":[
				0.7071068286895752,
				0,
				0,
				0.7071068286895752
			],
			"scale":[
				2.0005202293395996,
				2.0005202293395996,
				2.0005202293395996
			],
			"translation":[
				-0.02951061725616455,
				4.864012718200684,
				-0.22363686561584473
			]
		},
		{
			"mesh":1,
			"name":"window",
			"rotation":[
				0.7071068286895752,
				0,
				0,
				0.7071068286895752
			],
			"scale":[
				2.0005202293395996,
				2.0005202293395996,
				2.0005202293395996
			],
			"translation":[
				-0.02951061725616455,
				4.864012718200684,
				-0.15887856483459473
			]
		},
		{
			"mesh":2,
			"name":"curtainhanger",
			"rotation":[
				0,
				0,
				-0.7071068286895752,
				0.7071068286895752
			],
			"scale":[
				0.6072176098823547,
				1.1523077487945557,
				0.6072176098823547
			],
			"translation":[
				-0.02951061725616455,
				6.487085342407227,
				0.07256674766540527
			]
		},
		{
			"mesh":3,
			"name":"curtain2",
			"rotation":[
				0.70710688829422,
				0,
				0,
				0.7071066498756409
			],
			"scale":[
				1.4322547912597656,
				0.6072176098823547,
				4.087741851806641
			],
			"translation":[
				4.5079498291015625,
				2.6194076538085938,
				0.3598134517669678
			]
		},
		{
			"mesh":4,
			"name":"curtain1",
			"rotation":[
				0.70710688829422,
				0,
				0,
				0.7071066498756409
			],
			"scale":[
				1.4322547912597656,
				0.6072176098823547,
				4.087741851806641
			],
			"translation":[
				-4.457315444946289,
				2.6194076538085938,
				0.3598134517669678
			]
		}
	],
	"cameras":[
		{
			"name":"Camera",
			"perspective":{
				"aspectRatio":1.7777777777777777,
				"yfov":0.39959652046304894,
				"zfar":100,
				"znear":0.10000000149011612
			},
			"type":"perspective"
		}
	],
	"materials":[
		{
			"doubleSided":true,
			"extensions":{
				"KHR_materials_transmission":{
					"transmissionFactor":1
				}
			},
			"name":"Material.001",
			"pbrMetallicRoughness":{
				"metallicFactor":0,
				"roughnessFactor":0
			}
		},
		{
			"doubleSided":true,
			"extensions":{
				"KHR_materials_specular":{
					"specularFactor":0
				}
			},
			"name":"Material.002",
			"pbrMetallicRoughness":{
				"baseColorFactor":[
					0.6924226880073547,
					0.42070984840393066,
					0.25121116638183594,
					1
				],
				"metallicFactor":0
			}
		},
		{
			"doubleSided":true,
			"name":"Material.003",
			"pbrMetallicRoughness":{
				"baseColorFactor":[
					0.30049726366996765,
					0.30049726366996765,
					0.30049726366996765,
					1
				],
				"metallicFactor":0.8999999761581421,
				"roughnessFactor":0.20000000298023224
			}
		},
		{
			"doubleSided":true,
			"extensions":{
				"KHR_materials_specular":{
					"specularFactor":0
				}
			},
			"name":"Material.004",
			"pbrMetallicRoughness":{
				"baseColorFactor":[
					0.9046450257301331,
					0.23454786837100983,
					0.1384342610836029,
					1
				],
				"metallicFactor":0
			}
		}
	],
	"meshes":[
		{
			"name":"Plane.004",
			"primitives":[
				{
					"attributes":{
						"POSITION":0,
						"NORMAL":1,
						"TEXCOORD_0":2,
						"TANGENT":3
					},
					"indices":4,
					"material":0
				}
			]
		},
		{
			"name":"Plane.003",
			"primitives":[
				{
					"attributes":{
						"POSITION":5,
						"NORMAL":6,
						"TEXCOORD_0":7,
						"TANGENT":8
					},
					"indices":9,
					"material":1
				}
			]
		},
		{
			"name":"Cylinder",
			"primitives":[
				{
					"attributes":{
						"POSITION":10,
						"NORMAL":11,
						"TEXCOORD_0":12
					},
					"indices":13,
					"material":2
				}
			]
		},
		{
			"name":"Plane.006",
			"primitives":[
				{
					"attributes":{
						"POSITION":14,
						"NORMAL":15,
						"TEXCOORD_0":16,
						"TANGENT":17
					},
					"indices":18,
					"material":3
				}
			]
		},
		{
			"name":"Plane.005",
			"primitives":[
				{
					"attributes":{
						"POSITION":19,
						"NORMAL":20,
						"TEXCOORD_0":21,
						"TANGENT":22
					},
					"indices":18,
					"material":3
				}
			]
		}
	],
	"accessors":[
		{
			"bufferView":0,
			"componentType":5126,
			"count":8,
			"max":[
				1.877326488494873,
				9.337379083262931e-07,
				2.3201563358306885
			],
			"min":[
				-1.877326488494873,
				9.087434023058449e-07,
				-0.5525776147842407
			],
			"type":"VEC3"
		},
		{
			"bufferView":1,
			"componentType":5126,
			"count":8,
			"type":"VEC3"
		},
		{
			"bufferView":2,
			"componentType":5126,
			"count":8,
			"type":"VEC2"
		},
		{
			"bufferView":3,
			"componentType":5126,
			"count":8,
			"type":"VEC4"
		},
		{
			"bufferView":4,
			"componentType":5123,
			"count":12,
			"type":"SCALAR"
		},
		{
			"bufferView":5,
			"componentType":5126,
			"count":293,
			"max":[
				1.9993706941604614,
				1.419032287230948e-07,
				2.443535089492798
			],
			"min":[
				-1.9993706941604614,
				-0.057112567126750946,
				-0.6734083890914917
			],
			"type":"VEC3"
		},
		{
			"bufferView":6,
			"componentType":5126,
			"count":293,
			"type":"VEC3"
		},
		{
			"bufferView":7,
			"componentType":5126,
			"count":293,
			"type":"VEC2"
		},
		{
			"bufferView":8,
			"componentType":5126,
			"count":293,
			"type":"VEC4"
		},
		{
			"bufferView":9,
			"componentType":5123,
			"count":576,
			"type":"SCALAR"
		},
		{
			"bufferView":10,
			"componentType":5126,
			"count":4160,
			"max":[
				0.26170849800109863,
				5.1493635177612305,
				0.25800570845603943
			],
			"min":[
				-0.2618805766105652,
				-5.129155158996582,
				-0.2655816972255707
			],
			"type":"VEC3"
		},
		{
			"bufferView":11,
			"componentType":5126,
			"count":4160,
			"type":"VEC3"
		},
		{
			"bufferView":12,
			"componentType":5126,
			"count":4160,
			"type":"VEC2"
		},
		{
			"bufferView":13,
			"componentType":5123,
			"count":6132,
			"type":"SCALAR"
		},
		{
			"bufferView":14,
			"componentType":5126,
			"count":130944,
			"max":[
				0.9388530254364014,
				0.3342888057231903,
				0.9988102912902832
			],
			"min":[
				-0.9718444347381592,
				-0.3405058681964874,
				-1.000746488571167
			],
			"type":"VEC3"
		},
		{
			"bufferView":15,
			"componentType":5126,
			"count":130944,
			"type":"VEC3"
		},
		{
			"bufferView":16,
			"componentType":5126,
			"count":130944,
			"type":"VEC2"
		},
		{
			"bufferView":17,
			"componentType":5126,
			"count":130944,
			"type":"VEC4"
		},
		{
			"bufferView":18,
			"componentType":5125,
			"count":196416,
			"type":"SCALAR"
		},
		{
			"bufferView":19,
			"componentType":5126,
			"count":130944,
			"max":[
				0.9388530254364014,
				0.3342888057231903,
				0.9988102912902832
			],
			"min":[
				-0.9718444347381592,
				-0.3405058681964874,
				-1.000746488571167
			],
			"type":"VEC3"
		},
		{
			"bufferView":20,
			"componentType":5126,
			"count":130944,
			"type":"VEC3"
		},
		{
			"bufferView":21,
			"componentType":5126,
			"count":130944,
			"type":"VEC2"
		},
		{
			"bufferView":22,
			"componentType":5126,
			"count":130944,
			"type":"VEC4"
		}
	],
	"bufferViews":[
		{
			"buffer":0,
			"byteLength":96,
			"byteOffset":0,
			"target":34962
		},
		{
			"buffer":0,
			"byteLength":96,
			"byteOffset":96,
			"target":34962
		},
		{
			"buffer":0,
			"byteLength":64,
			"byteOffset":192,
			"target":34962
		},
		{
			"buffer":0,
			"byteLength":128,
			"byteOffset":256,
			"target":34962
		},
		{
			"buffer":0,
			"byteLength":24,
			"byteOffset":384,
			"target":34963
		},
		{
			"buffer":0,
			"byteLength":3516,
			"byteOffset":408,
			"target":34962
		},
		{
			"buffer":0,
			"byteLength":3516,
			"byteOffset":3924,
			"target":34962
		},
		{
			"buffer":0,
			"byteLength":2344,
			"byteOffset":7440,
			"target":34962
		},
		{
			"buffer":0,
			"byteLength":4688,
			"byteOffset":9784,
			"target":34962
		},
		{
			"buffer":0,
			"byteLength":1152,
			"byteOffset":14472,
			"target":34963
		},
		{
			"buffer":0,
			"byteLength":49920,
			"byteOffset":15624,
			"target":34962
		},
		{
			"buffer":0,
			"byteLength":49920,
			"byteOffset":65544,
			"target":34962
		},
		{
			"buffer":0,
			"byteLength":33280,
			"byteOffset":115464,
			"target":34962
		},
		{
			"buffer":0,
			"byteLength":12264,
			"byteOffset":148744,
			"target":34963
		},
		{
			"buffer":0,
			"byteLength":1571328,
			"byteOffset":161008,
			"target":34962
		},
		{
			"buffer":0,
			"byteLength":1571328,
			"byteOffset":1732336,
			"target":34962
		},
		{
			"buffer":0,
			"byteLength":1047552,
			"byteOffset":3303664,
			"target":34962
		},
		{
			"buffer":0,
			"byteLength":2095104,
			"byteOffset":4351216,
			"target":34962
		},
		{
			"buffer":0,
			"byteLength":785664,
			"byteOffset":6446320,
			"target":34963
		},
		{
			"buffer":0,
			"byteLength":1571328,
			"byteOffset":7231984,
			"target":34962
		},
		{
			"buffer":0,
			"byteLength":1571328,
			"byteOffset":8803312,
			"target":34962
		},
		{
			"buffer":0,
			"byteLength":1047552,
			"byteOffset":10374640,
			"target":34962
		},
		{
			"buffer":0,
			"byteLength":2095104,
			"byteOffset":11422192,
			"target":34962
		}
	],
	"buffers":[
		{
			"byteLength":13517296,
			"uri":"window-80cbdf8f436d311bbd454ca4d3f56625.bin"
		}
	]
}
